<?xml version="1.0" encoding="UTF-8" standalone="no"?>
<!-- Created with Inkscape (http://www.inkscape.org/) -->

<svg
   width="1194.7758"
   height="1093.2031"
   viewBox="0 0 1194.7758 1093.2031"
   version="1.1"
   id="svg5"
   inkscape:export-filename="мишень.png"
   inkscape:export-xdpi="96"
   inkscape:export-ydpi="96"
   xml:space="preserve"
   inkscape:version="1.2 (dc2aedaf03, 2022-05-15)"
   sodipodi:docname="рисунок.svg"
   xmlns:inkscape="http://www.inkscape.org/namespaces/inkscape"
   xmlns:sodipodi="http://sodipodi.sourceforge.net/DTD/sodipodi-0.dtd"
   xmlns="http://www.w3.org/2000/svg"
   xmlns:svg="http://www.w3.org/2000/svg"><sodipodi:namedview
     id="namedview7"
     pagecolor="#505050"
     bordercolor="#ffffff"
     borderopacity="1"
     inkscape:showpageshadow="0"
     inkscape:pageopacity="0"
     inkscape:pagecheckerboard="1"
     inkscape:deskcolor="#505050"
     inkscape:document-units="px"
     showgrid="false"
     inkscape:zoom="0.48611111"
     inkscape:cx="822.85714"
     inkscape:cy="632.57143"
     inkscape:window-width="1680"
     inkscape:window-height="1028"
     inkscape:window-x="1358"
     inkscape:window-y="-8"
     inkscape:window-maximized="1"
     inkscape:current-layer="g5165" /><defs
     id="defs2" /><g
     inkscape:label="Слой 1"
     inkscape:groupmode="layer"
     id="layer1"
     transform="translate(-413.39844,6.6015625)"><g
       id="g4458"
       style="display:none"
       inkscape:label="1"><path
         id="path234"
         style="color:#000000;display:inline;fill:#000000;stroke-linecap:square;-inkscape-stroke:none;paint-order:markers stroke fill"
         inkscape:label="прицел"
         d="M 900,-6.6015625 C 776.21886,6.9895845 659.97682,62.214599 571.0957,151.0957 482.2146,239.97683 426.98961,356.21879 413.39844,480 H 534.28125 C 547.22313,388.13015 589.57351,302.32098 655.94727,235.94727 722.32098,169.57351 808.13023,127.2231 900,114.28125 Z m 120,0 V 114.28125 c 91.8698,12.94185 177.6792,55.29226 244.0527,121.66602 12.0676,12.06756 23.3253,24.78766 33.7676,38.0625 2.3696,-0.68443 5.5904,-1.69652 7.9063,-2.36133 6.5156,-1.87042 6.576,-2.6495 6.3183,-2.33008 -0.2577,0.31969 0.7355,-2.04185 3.3692,-7.96484 l 4.8847,-6.03125 c 6.6171,-4.80935 13.9968,-8.37872 21.834,-11.52539 -2.7829,-3.2528 -8.1841,-9.00534 -8.9824,-9.9961 l 8.5312,-24.07812 c 7.8795,-1.69239 15.269,-2.34566 21.1055,-3.02539 1.9641,-0.22874 1.8855,-0.33208 3.4121,-0.60938 l 4.8867,-31.37695 c -7.1487,-8.06014 -14.5204,-15.95402 -22.1816,-23.61524 C 1260.0232,62.214599 1143.7812,6.9895845 1020,-6.6015625 Z M 900,242.70703 c -114.26144,23.17162 -205.54666,111.18164 -233.91797,223.52149 0.51066,-0.14807 1.2707,-0.36945 1.76172,-0.51172 0.815,-1.61347 0.9723,-3.24908 2.13672,-5.20703 l 0.0332,-0.0449 c 17.63078,-29.40006 34.70237,-69.71819 69.94531,-96.75976 9.79826,-7.93845 16.72524,-12.07401 29.29688,-17.41797 9.28472,-3.94678 15.93033,-6.04849 22.16406,-7.03516 25.48706,-4.03617 41.37055,-2.7433 83.67383,-1.30468 10.20195,0.34689 17.10295,0.85793 24.90625,1.29101 z m 120,0 v 108.09961 c 0.2976,0.0425 0.7802,0.0785 1.0586,0.12109 2.8949,0.44341 5.4283,0.91445 7.666,1.45508 1.1189,0.27043 2.0361,0.47329 3.666,1.10157 0.4079,0.1571 1.4423,0.84843 2.0645,1.14453 37.9562,-12.1309 82.9761,-26.21339 127.7597,-39.99414 -39.5018,-35.5669 -88.282,-60.99045 -142.2148,-71.92774 z m 442.875,74.81055 c 1.5363,9.79127 3.0724,19.50342 4.6504,29.63672 l -27.2012,10.77734 c -8.693,-12.72399 -15.3974,-22.39338 -22.5371,-32.59766 -7.6353,7.24509 -15.2675,14.49102 -22.9023,21.73633 l -25.3184,-10.54297 c -0.1121,-4.90706 -0.2438,-8.60308 -0.416,-12.96875 -2.4758,0.84412 -4.7292,1.96704 -7.3887,2.56641 l -1.625,0.27734 c -7.7209,0.86684 -14.7159,0.45205 -21.2871,-1.39062 -1.679,-0.47073 -4.249,-0.61043 -6.8594,-0.57031 27.663,47.77636 45.9824,100.57141 53.7286,155.55859 h 120.8828 c -6.1874,-56.35138 -21.0296,-111.12873 -43.7266,-162.48242 z m -257.5137,45 c -39.5249,12.30693 -76.9584,23.88849 -117.0742,36.28906 3.638,5.42662 6.6201,9.84412 12.7871,19.14844 9.2151,13.90318 19.2141,28.67107 20.5703,30.53711 1.3216,1.8183 2.4642,3.4914 3.4434,5.08789 0.2214,0.36129 0.4584,0.83356 0.6738,1.20898 21.8762,1.3686 40.8085,3.22606 63.252,4.4375 8.3095,-2.15513 16.658,-4.91582 24.5605,-6.86523 l 7.9531,2.95117 3.9024,-3.75195 c 8.6888,0.3331 16.8099,0.98632 24.9082,1.65234 -9.8961,-32.89027 -25.2374,-63.47872 -44.9766,-90.69531 z m -523.77927,100.49414 -0.17187,7.76758 c 0.42039,-0.78859 0.88642,-1.63092 1.46484,-2.60352 0.18418,-0.30713 0.36499,-0.63673 0.54883,-0.94531 l -1.05078,-3.92969 c -0.25729,-0.0493 -0.54178,-0.25895 -0.79102,-0.28906 z m 528.33397,3.41016 -0.064,0.1289 0.064,-0.0644 c 0,-0.0274 -10e-5,-0.0333 0,-0.0645 z M 413.39844,600 C 426.98961,723.78121 482.2146,840.02317 571.0957,928.9043 659.97682,1017.7854 776.21886,1073.0104 900,1086.6016 V 965.71875 C 808.13023,952.7769 722.32098,910.42649 655.94727,844.05273 620.05174,808.15723 591.19731,766.5709 570.20703,721.42188 525.12699,703.12502 482.22399,675.11443 455.00195,633.97266 l 3.07813,-5.83594 -7.01367,-6.18164 C 450.39583,615.21075 450.03453,607.67859 450.06445,600 Z m 990.87496,0 c -0.3327,5.06117 -0.5752,11.29971 -0.9746,15.03711 l -15.0859,13.4082 -7.4922,-0.0859 c -17.0122,81.08923 -57.1761,156.20175 -116.668,215.69335 C 1197.6792,910.42645 1111.8698,952.7769 1020,965.71875 v 120.88285 c 123.7812,-13.5912 240.0232,-68.8162 328.9043,-157.6973 C 1437.7854,840.02317 1493.0104,723.78121 1506.6016,600 Z M 1020,713.31055 v 123.98242 c 70.7839,-14.3546 132.717,-53.62406 176.377,-108.11328 -58.4111,-5.45988 -117.9995,-10.73585 -176.377,-15.86914 z m -179.06445,36.92968 c -31.92721,0.1242 -64.75867,1.48954 -97.48828,1.37696 41.73723,42.78202 95.89836,73.37539 156.55273,85.67578 v -86.68164 c -2.34817,0.31065 -4.60413,0.687 -7.05273,0.92773 l -2.48047,0.0332 c -16.16412,-1.09395 -32.72264,-1.39742 -49.53125,-1.33204 z" /><path
         style="color:#000000;display:inline;fill:#ffffff;stroke-width:5.48026;stroke-linecap:round;stroke-linejoin:bevel;-inkscape-stroke:none;paint-order:fill markers stroke"
         d="m 32.168824,81.181099 c 2.912253,2.809657 5.01354,5.071901 8.034143,8.215748 2.357291,-2.056436 4.125827,-4.062698 6.641244,-6.788598 l 1.427507,9.159808 c 1.292042,0.625258 3.872061,0.567743 6.32513,1.094624 -0.365267,0.453329 -1.554446,1.956669 -3.530056,3.933227 0.192652,0.427344 0.40529,0.859744 0.628303,1.293355 2.376226,0.689602 4.161019,1.469528 5.771753,2.640227 0.793768,1.78518 0.662336,2.58084 3.516498,3.40019 15.100187,4.33482 37.060504,11.10647 51.933644,15.88561 1.45478,0.48172 5.60787,1.10437 6.70154,1.51848 1.03753,0.39286 -1.49618,-0.702 -1.88847,-0.82132 l -1.97518,-0.70965 0.66576,-0.38462 c -0.44132,0.25518 0.89634,-0.40189 2.44293,-0.58941 2.65998,-0.20477 3.81756,0.32001 5.88557,1.31762 -1.3488,-1.95381 -6.257,-2.12233 -4.49802,-2.24313 0.52202,-0.0358 2.51511,-0.25441 4.42916,-0.48594 7.1758,-0.86798 9.55111,-1.05884 15.81853,-1.27195 7.76009,-0.2639 10.36331,-0.48994 14.76387,0.20694 0.41384,0.0655 1.93857,0.47726 3.40518,1.10069 2.23004,0.94795 3.00471,1.40852 4.73279,2.81255 5.71708,4.37375 8.75459,11.3207 12.119,16.931 0.94999,1.59738 0.65195,1.76543 0.56765,1.77573 0.0649,0.005 21.81611,6.33379 22.60892,6.72081 -0.004,0.0101 -0.008,0.0227 -0.0125,0.0328 3.87322,1.05183 7.11961,1.91811 11.03223,3.36058 2.25013,1.97743 3.37566,4.20477 4.96006,7.04691 0.74233,2.46698 0.73644,6.13208 0.46275,8.88472 -8.91664,-0.2417 -16.00664,-0.59685 -25.0472,-1.0411 l -60.16652,-1.72757 -15.53025,0.10704 -0.15805,-7.34019 c -0.15798,-7.33556 -0.1577,-7.34085 0.31112,-8.184 0.25801,-0.464 1.74693,-3.54849 3.3092,-6.8546 1.56219,-3.306 2.91796,-6.08941 3.01236,-6.18491 0.20696,-0.20931 21.28341,-2.14703 28.53088,-2.59492 11.02768,2.05281 12.17922,2.92593 25.84997,6.1289 -9.065,-2.73455 -16.00942,-4.68693 -25.78754,-7.49718 l -14.63935,1.17419 c -8.05138,0.64562 -14.75578,1.27112 -14.89909,1.39004 -0.14329,0.11893 -0.37557,0.49319 -0.51592,0.83203 -0.20816,0.50254 -0.41668,0.63887 -1.1303,0.73891 -2.34422,0.32864 -21.30976,2.4159 -21.37336,2.3523 -0.04011,-0.0401 0.265144,-0.53767 0.678254,-1.10604 0.413089,-0.56837 2.135023,-3.12157 3.826546,-5.67364 1.69154,-2.55207 3.25237,-4.89038 3.46833,-5.19625 l 0.39283,-0.55588 1.53133,0.49451 c 0.84246,0.27213 2.62345,0.8446 3.95749,1.2723 1.33401,0.42771 3.80971,1.02357 4.62646,1.27837 -0.26988,3.62248 3.68107,4.59166 6.34939,4.51836 2.05828,-0.39867 4.30764,-1.37407 5.03856,-3.07051 0.71313,-1.64515 0.86657,-3.29034 0.54802,-4.49303 -0.2008,-0.92971 -0.32872,-1.61465 -0.98081,-2.26274 0.29329,0.94136 0.33952,1.98745 0.34252,2.84752 0,1.97476 -0.70897,3.57438 -2.14465,4.83804 -2.62092,2.10646 -8.275,0.82095 -8.3103,-2.23635 0.24014,-0.1682 0.43635,-0.43895 0.43635,-0.6019 -19.793411,-5.8962 -40.249366,-12.57067 -58.222735,-18.04846 -1.100857,-0.22731 -2.424841,-0.21536 -3.493307,0.0842 -0.982675,0.27555 -1.576586,0.31089 -2.842527,0.16876 -1.689385,-0.38073 -3.151238,-1.13803 -4.555821,-2.07401 -0.01925,1.9956 -0.152608,4.01843 -0.211218,6.58559 -2.167503,-2.05691 -4.334934,-4.11339 -6.502454,-6.17029 -2.096013,2.76778 -3.711134,5.32371 -5.946578,8.59573 0.533402,-3.42541 0.987805,-6.77997 1.545603,-9.84841 -4.921192,0.48498 -8.620864,0.78694 -13.977867,1.34366 4.293761,-3.16726 7.517365,-5.59342 12.050501,-8.993542 -3.502527,-1.663368 -6.276733,-2.730302 -10.173085,-4.558675 3.190613,-0.469147 5.787993,-0.236373 9.1541,-0.78743 -0.476901,-4.076374 -0.880167,-7.011609 -1.320828,-11.685864 z m 2.757611,6.45286 2.669128,7.321281 -5.291873,0.174113 6.186696,3.11868 -5.95086,4.699247 5.826698,-1.31868 0.262953,4.03312 2.383341,-3.12296 4.189756,5.71716 0.328959,-5.33254 7.154661,0.52983 -5.570168,-5.636176 2.97989,-3.517926 -4.61362,0.02248 -0.436708,-4.890131 -4.150153,4.236139 z m 8.641396,6.03863 v 2.780089 l 2.912813,-0.132368 -2.030121,1.941995 5.737144,4.148015 -6.090007,-1.50029 0.264736,4.23649 -2.780445,-4.94258 -2.426869,2.86857 1.544533,-4.280733 -4.457347,2.427223 3.971759,-3.971756 -0.17661,-0.220852 -1.676901,-3.353803 3.618896,2.736204 z m 74.340979,24.649031 c 0.0234,7e-4 0.0376,0.003 0.0407,0.006 0.0821,0.0821 -1.77616,0.59388 -3.154,1.36971 -0.33261,0.18729 -0.90422,-0.13048 -1.32975,-0.26331 -0.4255,-0.13283 -0.82864,-0.29646 -0.89554,-0.36356 -0.0669,-0.067 0.64698,-0.23946 1.58592,-0.38319 0.88029,-0.13476 3.40083,-0.37594 3.7527,-0.36535 z m 0.12773,17.50685 c 0.0292,5.6e-4 0.046,0.002 0.0496,0.006 0.20982,0.20983 -4.28221,9.42706 -5.02321,10.29511 -1.03453,3.1067 -0.11857,13.94906 -0.25832,15.77643 -14.417658,0.3212 -29.67127,0.52948 -42.138752,0.83631 -0.236263,-4.00906 -0.30127,-7.8081 -0.613318,-12.9917 2.485028,-4.27523 5.026925,-8.60066 7.865739,-12.58283 1.367416,0.33731 3.070301,0.91938 4.86908,1.36007 9.756206,-0.52678 19.845801,-1.05905 27.686361,-1.94484 3.8712,-0.43987 7.1242,-0.76305 7.56283,-0.75461 z m -41.522944,1.27159 c 0.141688,0.11515 -7.859486,12.60687 -8.080168,12.61387 0.404772,5.52572 0.493937,6.7701 0.818471,13.10017 -6.031805,0.35393 -12.51118,0.9889 -18.551171,1.0725 l -4.060243,0.0478 c -0.279847,-2.61869 -0.506313,-8.10373 -0.490583,-12.3238 3.139761,-5.11926 7.949688,-11.67255 8.381297,-12.41478 7.852643,-0.55461 14.175641,-1.79648 21.982397,-2.09577 z m 32.670324,26.46008 c 2.96783,-0.002 3.70227,0.0574 4.01779,0.11667 0.0527,0.32158 0.68577,0.33502 1.60055,0.33502 h 2.25561 c 0.78224,5.09006 2.58504,8.9141 5.08101,14.67361 -14.30659,1.255 -29.797998,2.61427 -44.35512,3.99209 -7.62672,0.72551 -11.266942,0.81932 -12.898585,0.33253 -7.990239,-4.02764 -11.399075,-10.87318 -13.825162,-17.46261 13.675034,-0.95882 29.127011,-1.4962 40.705539,-1.73363 9.249118,-0.18729 14.450528,-0.25168 17.418368,-0.25368 z m 27.68779,0.37284 c 10.71079,-0.002 41.63404,0.58175 51.69174,1.3401 -0.004,0.004 -0.007,0.009 -0.01,0.0139 10.21029,0.60525 14.31382,0.6802 26.30702,0.88377 -8.60332,13.00253 -27.66691,18.77316 -40.31307,19.8645 -12.01772,1.07933 -24.96853,-0.42556 -37.13481,0.39782 -13.20034,-1.29776 -14.62945,-7.21596 -19.65436,-22.3192 6.26626,-0.0974 12.68667,-0.18003 19.11311,-0.1809 z"
         id="path4448"
         transform="matrix(-5.4741955,0,0,5.4741955,1643.7039,-283.9598)"
         inkscape:label="танк" /></g><g
       id="g4462"
       style="display:none"
       inkscape:label="2"><path
         id="path4322"
         style="display:inline;opacity:1;fill:#ffffff;fill-opacity:1;stroke:none;stroke-width:0.778412;stroke-linecap:round;stroke-linejoin:bevel;stroke-dasharray:none;stroke-opacity:1;paint-order:fill markers stroke"
         d="m 32.168824,81.181099 c 2.912253,2.809657 5.01354,5.071901 8.034143,8.215748 2.357291,-2.056436 4.125827,-4.062698 6.641244,-6.788598 l 1.427507,9.159808 c 1.292042,0.625258 3.872061,0.567743 6.32513,1.094624 -0.365267,0.453329 -1.554446,1.956669 -3.530056,3.933227 0.192652,0.427344 0.40529,0.859744 0.628303,1.293355 2.376226,0.689602 4.161019,1.469528 5.771753,2.640227 0.793768,1.78518 0.662336,2.58084 3.516498,3.40019 15.100187,4.33482 37.060504,11.10647 51.933644,15.88561 1.45478,0.48172 5.60787,1.10437 6.70154,1.51848 1.03753,0.39286 -1.49618,-0.702 -1.88847,-0.82132 l -1.97518,-0.70965 0.66576,-0.38462 c -0.44132,0.25518 0.89634,-0.40189 2.44293,-0.58941 2.65998,-0.20477 3.81756,0.32001 5.88557,1.31762 -1.3488,-1.95381 -6.257,-2.12233 -4.49802,-2.24313 0.52202,-0.0358 2.51511,-0.25441 4.42916,-0.48594 7.1758,-0.86798 9.55111,-1.05884 15.81853,-1.27195 7.76009,-0.2639 10.36331,-0.48994 14.76387,0.20694 0.41384,0.0655 1.93857,0.47726 3.40518,1.10069 2.23004,0.94795 3.00471,1.40852 4.73279,2.81255 5.71708,4.37375 8.75459,11.3207 12.119,16.931 0.94999,1.59738 0.65195,1.76543 0.56765,1.77573 0.0649,0.005 21.81611,6.33379 22.60892,6.72081 -0.004,0.0101 -0.008,0.0227 -0.0125,0.0328 3.87322,1.05183 7.11961,1.91811 11.03223,3.36058 2.25013,1.97743 3.37566,4.20477 4.96006,7.04691 0.74233,2.46698 0.73644,6.13208 0.46275,8.88472 -8.91664,-0.2417 -16.00664,-0.59685 -25.0472,-1.0411 l -60.16652,-1.72757 -15.53025,0.10704 -0.15805,-7.34019 c -0.15798,-7.33556 -0.1577,-7.34085 0.31112,-8.184 0.25801,-0.464 1.74693,-3.54849 3.3092,-6.8546 1.56219,-3.306 2.91796,-6.08941 3.01236,-6.18491 0.20696,-0.20931 21.28341,-2.14703 28.53088,-2.59492 11.02768,2.05281 12.17922,2.92593 25.84997,6.1289 -9.065,-2.73455 -16.00942,-4.68693 -25.78754,-7.49718 l -14.63935,1.17419 c -8.05138,0.64562 -14.75578,1.27112 -14.89909,1.39004 -0.14329,0.11893 -0.37557,0.49319 -0.51592,0.83203 -0.20816,0.50254 -0.41668,0.63887 -1.1303,0.73891 -2.34422,0.32864 -21.30976,2.4159 -21.37336,2.3523 -0.04011,-0.0401 0.265144,-0.53767 0.678254,-1.10604 0.413089,-0.56837 2.135023,-3.12157 3.826546,-5.67364 1.69154,-2.55207 3.25237,-4.89038 3.46833,-5.19625 l 0.39283,-0.55588 1.53133,0.49451 c 0.84246,0.27213 2.62345,0.8446 3.95749,1.2723 1.33401,0.42771 3.80971,1.02357 4.62646,1.27837 -0.26988,3.62248 3.68107,4.59166 6.34939,4.51836 2.05828,-0.39867 4.30764,-1.37407 5.03856,-3.07051 0.71313,-1.64515 0.86657,-3.29034 0.54802,-4.49303 -0.2008,-0.92971 -0.32872,-1.61465 -0.98081,-2.26274 0.29329,0.94136 0.33952,1.98745 0.34252,2.84752 0,1.97476 -0.70897,3.57438 -2.14465,4.83804 -2.62092,2.10646 -8.275,0.82095 -8.3103,-2.23635 0.24014,-0.1682 0.43635,-0.43895 0.43635,-0.6019 -19.793411,-5.8962 -40.249366,-12.57067 -58.222735,-18.04846 -1.100857,-0.22731 -2.424841,-0.21536 -3.493307,0.0842 -0.982675,0.27555 -1.576586,0.31089 -2.842527,0.16876 -1.689385,-0.38073 -3.151238,-1.13803 -4.555821,-2.07401 -0.01925,1.9956 -0.152608,4.01843 -0.211218,6.58559 -2.167503,-2.05691 -4.334934,-4.11339 -6.502454,-6.17029 -2.096013,2.76778 -3.711134,5.32371 -5.946578,8.59573 0.533402,-3.42541 0.987805,-6.77997 1.545603,-9.84841 -4.921192,0.48498 -8.620864,0.78694 -13.977867,1.34366 4.293761,-3.16726 7.517365,-5.59342 12.050501,-8.993542 -3.502527,-1.663368 -6.276733,-2.730302 -10.173085,-4.558675 3.190613,-0.469147 5.787993,-0.236373 9.1541,-0.78743 -0.476901,-4.076374 -0.880167,-7.011609 -1.320828,-11.685864 z m 2.757611,6.45286 2.669128,7.321281 -5.291873,0.174113 6.186696,3.11868 -5.95086,4.699247 5.826698,-1.31868 0.262953,4.03312 2.383341,-3.12296 4.189756,5.71716 0.328959,-5.33254 7.154661,0.52983 -5.570168,-5.636176 2.97989,-3.517926 -4.61362,0.02248 -0.436708,-4.890131 -4.150153,4.236139 z m 8.641396,6.03863 v 2.780089 l 2.912813,-0.132368 -2.030121,1.941995 5.737144,4.148015 -6.090007,-1.50029 0.264736,4.23649 -2.780445,-4.94258 -2.426869,2.86857 1.544533,-4.280733 -4.457347,2.427223 3.971759,-3.971756 -0.17661,-0.220852 -1.676901,-3.353803 3.618896,2.736204 z m 74.340979,24.649031 c 0.0234,7e-4 0.0376,0.003 0.0407,0.006 0.0821,0.0821 -1.77616,0.59388 -3.154,1.36971 -0.33261,0.18729 -0.90422,-0.13048 -1.32975,-0.26331 -0.4255,-0.13283 -0.82864,-0.29646 -0.89554,-0.36356 -0.0669,-0.067 0.64698,-0.23946 1.58592,-0.38319 0.88029,-0.13476 3.40083,-0.37594 3.7527,-0.36535 z m 0.12773,17.50685 c 0.0292,5.6e-4 0.046,0.002 0.0496,0.006 0.20982,0.20983 -4.28221,9.42706 -5.02321,10.29511 -1.03453,3.1067 -0.11857,13.94906 -0.25832,15.77643 -14.417658,0.3212 -29.67127,0.52948 -42.138752,0.83631 -0.236263,-4.00906 -0.30127,-7.8081 -0.613318,-12.9917 2.485028,-4.27523 5.026925,-8.60066 7.865739,-12.58283 1.367416,0.33731 3.070301,0.91938 4.86908,1.36007 9.756206,-0.52678 19.845801,-1.05905 27.686361,-1.94484 3.8712,-0.43987 7.1242,-0.76305 7.56283,-0.75461 z m -41.522944,1.27159 c 0.141688,0.11515 -7.859486,12.60687 -8.080168,12.61387 0.404772,5.52572 0.493937,6.7701 0.818471,13.10017 -6.031805,0.35393 -12.51118,0.9889 -18.551171,1.0725 l -4.060243,0.0478 c -0.279847,-2.61869 -0.506313,-8.10373 -0.490583,-12.3238 3.139761,-5.11926 7.949688,-11.67255 8.381297,-12.41478 7.852643,-0.55461 14.175641,-1.79648 21.982397,-2.09577 z m 32.670324,26.46008 c 2.96783,-0.002 3.70227,0.0574 4.01779,0.11667 0.0527,0.32158 0.68577,0.33502 1.60055,0.33502 h 2.25561 c 0.78224,5.09006 2.58504,8.9141 5.08101,14.67361 -14.30659,1.255 -29.797998,2.61427 -44.35512,3.99209 -7.62672,0.72551 -11.266942,0.81932 -12.898585,0.33253 -7.990239,-4.02764 -11.399075,-10.87318 -13.825162,-17.46261 13.675034,-0.95882 29.127011,-1.4962 40.705539,-1.73363 9.249118,-0.18729 14.450528,-0.25168 17.418368,-0.25368 z m 27.68779,0.37284 c 10.71079,-0.002 41.63404,0.58175 51.69174,1.3401 -0.004,0.004 -0.007,0.009 -0.01,0.0139 10.21029,0.60525 14.31382,0.6802 26.30702,0.88377 -8.60332,13.00253 -27.66691,18.77316 -40.31307,19.8645 -12.01772,1.07933 -24.96853,-0.42556 -37.13481,0.39782 -13.20034,-1.29776 -14.62945,-7.21596 -19.65436,-22.3192 6.26626,-0.0974 12.68667,-0.18003 19.11311,-0.1809 z"
         transform="matrix(-5.4741955,0,0,5.4741955,1643.7039,-283.9598)" /><path
         id="path4205"
         style="color:#000000;display:inline;fill:#000000;stroke-linecap:square;-inkscape-stroke:none;paint-order:markers stroke fill"
         d="M 900,-6.6015625 C 776.21862,6.9896117 659.977,62.214415 571.0957,151.0957 482.21442,239.97701 426.98965,356.21855 413.39844,480 H 534.28125 C 547.22315,388.12997 589.57339,302.32112 655.94727,235.94727 722.32112,169.57339 808.13005,127.22312 900,114.28125 Z m 120,0 V 114.28125 c 91.87,12.94187 177.679,55.29214 244.0527,121.66602 66.3741,66.37385 108.7242,152.1827 121.6661,244.05273 h 120.8828 C 1493.0104,356.21855 1437.7856,239.97701 1348.9043,151.0957 1260.023,62.214415 1143.7814,6.9896117 1020,-6.6015625 Z M 900,242.70703 C 781.10426,266.81846 687.04653,361.11832 662.90625,480 H 786.66602 C 804.89655,426.77994 846.73396,384.97026 900,366.75781 Z m 120,0 v 124.05078 c 53.2661,18.21245 95.1034,60.02213 113.334,113.24219 h 123.7598 C 1232.9534,361.11832 1138.8957,266.81846 1020,242.70703 Z M 413.39844,600 C 426.98965,723.78145 482.21442,840.02299 571.0957,928.9043 659.977,1017.7856 776.21862,1073.0104 900,1086.6016 V 965.71875 C 808.13005,952.77688 722.32112,910.42661 655.94727,844.05273 589.57339,777.67888 547.22315,691.87003 534.28125,600 Z m 249.50781,0 C 687.04653,718.88168 781.10426,813.18154 900,837.29297 V 713.24219 C 846.73396,695.02974 804.89655,653.22006 786.66602,600 Z m 470.42775,0 C 1115.1034,653.22006 1073.2661,695.02974 1020,713.24219 V 837.29297 C 1138.8957,813.18154 1232.9534,718.88168 1257.0938,600 Z m 252.3848,0 c -12.9419,91.87003 -55.292,177.67888 -121.6661,244.05273 C 1197.679,910.42661 1111.87,952.77688 1020,965.71875 v 120.88285 c 123.7814,-13.5912 240.023,-68.816 328.9043,-157.6973 C 1437.7856,840.02299 1493.0104,723.78145 1506.6016,600 Z"
         inkscape:export-filename="мишень.svg"
         inkscape:export-xdpi="96"
         inkscape:export-ydpi="96"
         inkscape:label="прицел" /></g><g
       id="g4468"
       style="display:none"
       inkscape:label="3"><path
         id="path4466"
         style="color:#000000;display:inline;fill:#000000;stroke-linecap:square;-inkscape-stroke:none;paint-order:markers stroke fill"
         inkscape:label="прицел"
         d="M 900,-6.6015625 C 776.21874,6.9895981 659.97691,62.214507 571.0957,151.0957 482.21451,239.97692 426.98963,356.21867 413.39844,480 H 534.28125 C 547.22314,388.13006 589.57345,302.32105 655.94727,235.94727 722.32105,169.57345 808.13014,127.22311 900,114.28125 Z m 120,0 V 114.28125 c 91.8699,12.94186 177.6791,55.2922 244.0527,121.66602 21.3313,21.33117 40.1441,44.69183 56.334,69.59375 26.2906,-7.87451 54.6916,-16.57945 77.0098,-22.98633 15.6242,-4.48529 14.9047,-8.84086 19.25,-18.61328 4.3633,-3.17131 8.9674,-5.81377 14.0742,-8.13672 -22.7778,-37.76827 -50.1113,-73.00393 -81.8164,-104.70899 C 1260.0231,62.214507 1143.7813,6.9895981 1020,-6.6015625 Z M 900,242.70703 C 781.10438,266.81844 687.04651,361.11844 662.90625,480 h 85.13477 c 5.14484,-1.49187 19.19727,-5.61087 19.2539,-5.61523 -0.46147,-0.0564 -2.093,-0.97635 3.10742,-9.72071 18.41743,-30.71185 35.04541,-68.74086 66.3418,-92.68359 9.45983,-7.68592 13.70055,-10.20722 25.9082,-15.39649 8.02851,-3.41276 16.37519,-5.66683 18.64063,-6.02539 6.70429,-1.0617 12.70628,-1.66923 18.70703,-2.05273 z m 120,0 v 110.61328 c 8.7033,0.88421 16.2224,1.55823 28.707,3.06836 10.4779,1.26744 21.3885,2.46419 24.2461,2.66016 9.629,0.66129 -17.2394,1.58377 -24.623,12.27929 11.3206,-5.46111 17.6575,-8.33383 32.2187,-7.21289 8.4664,1.02652 15.789,4.62348 13.3731,3.22657 l 3.6445,2.10547 -10.8125,3.88476 c -2.1475,0.65318 -16.0175,6.64668 -10.3379,4.49609 5.987,-2.26691 28.7218,-5.67547 36.6856,-8.3125 22.5239,-7.23754 51.5448,-16.16879 78.3906,-24.5625 C 1148.1449,293.539 1088.2024,256.53812 1020,242.70703 Z m 423.5215,35.43359 -0.7031,0.71094 1.0566,-0.0781 c -0.1146,-0.21261 -0.2386,-0.42036 -0.3535,-0.63282 z m 13.3203,26.20899 c -3.4608,1.48808 -7.0314,2.76992 -10.8516,3.63086 -6.93,0.77805 -10.1811,0.58458 -15.5605,-0.92383 -5.849,-1.63985 -13.0968,-1.70528 -19.1231,-0.46094 -24.0231,7.3216 -50.6031,15.75783 -75.9961,23.70313 24.1007,43.17247 40.5968,90.29115 48.7286,139.30469 15.6183,1.85333 31.4286,3.6919 48.6777,4.91015 0.2593,0.44591 3.0216,4.32658 3.8144,5.48633 h 70.0704 c -6.7195,-61.19696 -23.6516,-120.5345 -49.7598,-175.65039 z m -371.0664,55.89453 v 0.002 c 1.9262,-0.058 15.7241,1.2623 20.543,2 5.14,0.78681 9.0479,1.73089 8.6816,2.09766 -0.3662,0.36732 -2.573,1.2631 -4.9023,1.99023 -2.3294,0.72713 -5.4586,2.46667 -7.2793,1.44141 -7.5426,-4.24705 -17.7152,-7.04862 -17.2657,-7.49805 0.017,-0.0164 0.095,-0.0292 0.2227,-0.0332 z m 124.2187,9.1582 c -39.1138,12.20997 -78.4335,24.38352 -117.4101,35.99414 0,0.89202 1.0741,2.37417 2.3887,3.29493 -0.024,2.07727 -0.531,4.00219 -1.4122,5.76367 1.324,1.40741 2.5845,2.87102 3.8633,4.32031 1.5562,-3.03041 2.4836,-6.5424 2.1621,-10.85742 4.471,-1.39483 18.0236,-4.65668 25.3262,-6.99805 7.3028,-2.34131 17.0523,-5.47514 21.6641,-6.96484 l 8.3828,-2.70703 2.1504,3.04297 c 1.1822,1.67439 9.7264,14.47479 18.9863,28.44531 9.2597,13.97051 18.686,27.94722 20.9473,31.05859 2.2615,3.11137 3.9325,5.83517 3.7129,6.05469 -0.2399,0.23992 -45.7514,-4.93377 -80.6289,-8.87305 1.6768,3.02782 3.4906,5.96728 4.998,9.09961 0.6842,0.0772 0.6597,0.0562 1.3516,0.13477 36.5972,4.13458 82.3365,6.79327 128.0722,9.29492 -8.7467,-36.31443 -24.0152,-70.10616 -44.5547,-100.10352 z m -414.1523,88.91407 c -8.0462,2.38449 -15.36221,4.46547 -23.96485,7.06054 9.60636,-2.25071 15.59791,-3.8067 23.20508,-5.67773 0.23017,-0.4754 0.52564,-0.90978 0.75977,-1.38281 z M 413.39844,600 c 13.59119,123.78133 68.81607,240.02308 157.69726,328.9043 88.88121,88.8812 205.12304,144.1061 328.9043,157.6973 V 965.71875 C 808.13014,952.77689 722.32105,910.42655 655.94727,844.05273 589.57345,777.67895 547.22314,691.86994 534.28125,600 Z m 719.93556,0 c -0.9242,2.69785 -1.9503,5.3448 -2.9942,7.98242 1.8756,-0.0116 0.8356,-0.0953 3.1973,-0.0937 16.2466,0.0109 44.7201,0.3634 95.3516,1.38867 7.6228,0.15632 17.5812,0.58019 25.7636,0.78516 0.6702,-2.80061 1.4437,-5.56119 2.0352,-8.39062 -28.1054,-0.52456 -55.0221,-1.11747 -84.2187,-1.67188 z m 343.2148,0 c -0.2299,3.07734 -0.3867,7.5978 -0.6367,9.9375 l -22.2266,-0.26172 c -22.4434,-0.31064 -45.8019,-1.96202 -68.9433,-3.6289 -0.4513,2.90375 -0.8943,5.80866 -1.4043,8.69921 23.1212,1.16869 46.1646,2.4638 68.3809,4.02149 -13.2808,36.07178 -31.9416,73.54568 -75.6817,95.59375 -4.5321,1.35212 -12.0948,1.84834 -23.7031,1.52734 -21.177,47.288 -50.9225,90.80545 -88.2813,128.16406 C 1197.6791,910.42655 1111.8699,952.77689 1020,965.71875 v 120.88285 c 123.7813,-13.5912 240.0231,-68.8161 328.9043,-157.6973 C 1437.7855,840.02308 1493.0104,723.78133 1506.6016,600 Z m -686.72653,8.41797 -99.18946,2.84765 c -8.8853,0.43663 -16.39239,0.76747 -24.70898,1.17188 0.52819,2.13056 0.97957,4.28941 1.55273,6.40234 10.28818,-0.50001 18.6647,-0.73267 31.57617,-1.49804 -0.0164,-0.0268 -0.0328,-0.0543 -0.0547,-0.0762 19.50089,-1.47036 54.76401,-2.73859 92.93164,-3.86914 -0.71651,-1.65241 -1.43838,-3.30053 -2.10742,-4.97851 z m 274.20893,82.39648 c -4.4663,3.06829 -9.0661,5.92195 -13.8124,8.5918 -7.8285,10.76825 -17.3741,18.65219 -30.2188,24.21289 v 113.67383 c 81.1317,-16.45308 150.6491,-65.62431 194.3262,-132.95117 -50.6908,-4.58061 -101.7714,-9.27075 -150.295,-13.52735 z M 717.2168,721.00977 C 761.11556,779.75708 825.70859,822.22706 900,837.29297 V 732.1582 c -41.91305,0.81726 -84.03277,2.37792 -124.27539,-1.23632 -17.71278,-1.52859 -37.74296,-4.7956 -58.50781,-9.91211 z"
         inkscape:export-filename=".\path4470.svg"
         inkscape:export-xdpi="94.840561"
         inkscape:export-ydpi="94.840561" /><path
         id="path4472"
         style="display:inline;opacity:1;fill:#ffffff;fill-opacity:1;stroke:none;stroke-width:4.26118;stroke-linecap:round;stroke-linejoin:bevel;stroke-dasharray:none;stroke-opacity:1;paint-order:fill markers stroke"
         d="m 1555.018,156.98679 c -15.9422,15.38061 -27.4451,27.76458 -43.9805,44.97461 -12.9042,-11.25733 -22.5855,-22.24 -36.3554,-37.16211 l -7.8145,50.14258 c -7.0729,3.42279 -21.1964,3.10794 -34.625,5.99219 1.9996,2.48161 8.5094,10.71119 19.3242,21.53125 -1.0546,2.33936 -2.2186,4.70641 -3.4394,7.08008 -13.0079,3.77501 -22.7782,8.04448 -31.5957,14.45312 -4.3453,9.77242 -3.6258,14.12802 -19.25,18.6133 -82.6614,23.72965 -202.8765,60.79899 -284.2949,86.96094 -7.9638,2.63703 -30.6986,6.04553 -36.6856,8.31245 -5.6796,2.1506 8.1904,-3.84288 10.3379,-4.49606 l 10.8125,-3.88477 -3.6445,-2.10548 c 2.4159,1.3969 -4.9067,-2.20003 -13.3731,-3.22655 -14.5612,-1.12095 -20.898,1.7518 -32.2187,7.21291 7.3836,-10.69554 34.252,-11.61805 24.623,-12.27933 -2.8576,-0.19598 -13.7682,-1.39269 -24.2461,-2.66013 -39.2817,-4.75149 -52.28463,-5.7963 -86.59374,-6.9629 -42.48029,-1.44464 -56.73082,-2.68203 -80.82035,1.13283 -2.26544,0.35856 -10.61211,2.61261 -18.64062,6.02539 -12.20768,5.18926 -16.44837,7.71051 -25.90822,15.39645 -31.29641,23.94276 -47.92434,61.97172 -66.34177,92.6836 -5.20043,8.74437 -3.56891,9.66431 -3.10743,9.72069 -0.35528,0.0274 -119.42565,34.67241 -123.76565,36.79103 0.0219,0.0553 0.0438,0.12427 0.0684,0.17956 -21.20276,5.75792 -38.97414,10.50011 -60.39259,18.39647 -12.31765,10.82484 -18.47902,23.01773 -27.15233,38.57616 -4.06366,13.50473 -4.03142,33.56821 -2.53319,48.6367 48.81143,-1.32312 87.62348,-3.26728 137.11327,-5.69919 l 329.36342,-9.45706 85.0156,0.58596 0.8652,-40.18163 c 0.8648,-40.15629 0.8633,-40.18525 -1.7031,-44.80082 -1.4124,-2.54003 -9.5631,-19.42513 -18.1152,-37.52342 -8.5518,-18.09769 -15.9735,-33.33462 -16.4903,-33.85741 -1.1329,-1.1458 -116.50964,-11.75326 -156.18371,-14.20509 -60.36767,11.23748 -66.67143,16.01711 -141.50778,33.55079 49.62358,-14.96946 87.63869,-25.65717 141.16603,-41.04103 l 80.13863,6.42775 c 44.07493,3.53425 80.77613,6.95836 81.56063,7.60935 0.7844,0.65105 2.056,2.69982 2.8243,4.55469 1.1395,2.75101 2.281,3.4973 6.1875,4.04494 12.8327,1.79904 116.6538,13.22511 117.0019,12.87695 0.2196,-0.21951 -1.4514,-2.94331 -3.7129,-6.05468 -2.2613,-3.11137 -11.6875,-17.08808 -20.9472,-31.05861 -9.2599,-13.97053 -17.8041,-26.7709 -18.9864,-28.44529 l -2.1504,-3.043 -8.3828,2.70705 c -4.6118,1.48969 -14.3613,4.6235 -21.6641,6.96482 -7.3026,2.34137 -20.8551,5.60322 -25.3261,6.99804 1.4774,19.83017 -20.1509,25.13565 -34.7578,24.73439 -11.2674,-2.1824 -23.5809,-7.52193 -27.5821,-16.80857 -3.9038,-9.00587 -4.7437,-18.01197 -2.9999,-24.59573 1.0992,-5.08941 1.7994,-8.83891 5.3691,-12.38668 -1.6055,5.15319 -1.8586,10.87969 -1.875,15.58788 0,10.81023 3.881,19.56686 11.7402,26.48438 14.3474,11.53117 45.299,4.49404 45.4922,-12.24222 -1.3145,-0.92076 -2.3886,-2.40289 -2.3886,-3.29491 108.353,-32.27696 220.3329,-68.81431 318.7226,-98.8008 6.0263,-1.24434 13.2741,-1.17893 19.123,0.46092 5.3794,1.50842 8.6306,1.70188 15.5606,0.92383 9.248,-2.08419 17.2505,-6.2298 24.9394,-11.35354 0.1054,10.92431 0.8355,21.99767 1.1563,36.05081 11.8653,-11.25993 23.7303,-22.5175 35.5957,-33.77737 11.474,15.15137 20.3155,29.14303 32.5527,47.0547 -2.9199,-18.75136 -5.4074,-37.11488 -8.4609,-53.91212 26.9396,2.65488 47.1923,4.30786 76.5176,7.35546 -23.5049,-17.3382 -41.1516,-30.61948 -65.9668,-49.23241 19.1735,-9.1056 34.36,-14.94621 55.6894,-24.95508 -17.466,-2.5682 -31.6846,-1.29395 -50.1113,-4.31054 2.6106,-22.31487 4.8182,-38.38292 7.2305,-63.97071 z m -15.0957,35.32422 -14.6113,40.07812 28.9687,0.95313 -33.8672,17.07227 32.5762,25.72459 -31.8965,-7.21871 -1.4394,22.07809 -13.0469,-17.0957 -22.9355,31.29686 -1.8008,-29.19137 -39.166,2.90039 30.4921,-30.85353 -16.3125,-19.25781 25.2559,0.12306 2.3906,-26.76953 22.7188,23.18945 z m -47.3047,33.05664 v 15.21875 l -15.9453,-0.72461 11.1133,10.63086 -31.4063,22.70705 33.3379,-8.21288 -1.4492,23.19137 15.2207,-27.05665 13.2852,15.70312 -8.4551,-23.43357 24.4004,13.28709 -21.7422,-21.74217 0.9668,-1.20899 9.1797,-18.35937 -19.8106,14.97852 z m -406.957,134.93362 c -0.1281,0.004 -0.2059,0.0164 -0.2228,0.0328 -0.4495,0.44943 9.723,3.25102 17.2656,7.49806 1.8208,1.02526 4.9499,-0.71427 7.2793,-1.44141 2.3293,-0.72714 4.5361,-1.62288 4.9024,-1.9902 0.3662,-0.36677 -3.5417,-1.31085 -8.6817,-2.09765 -4.8189,-0.73771 -18.6168,-2.05797 -20.543,-2 z m -0.6993,95.83592 c -0.1598,0.003 -0.2518,0.0109 -0.2715,0.0328 -1.1486,1.14865 23.4417,51.60557 27.4981,56.35745 5.6632,17.00668 0.649,76.35988 1.4141,86.36326 78.925,1.75831 162.4263,2.89847 230.6757,4.57812 1.2934,-21.94638 1.6492,-42.74306 3.3574,-71.1191 -13.6035,-23.40345 -27.5183,-47.0817 -43.0585,-68.88088 -7.4856,1.84651 -16.8075,5.03287 -26.6543,7.44529 -53.4074,-2.88369 -108.6398,-5.79744 -151.5606,-10.64643 -21.1917,-2.40793 -38.9993,-4.17709 -41.4004,-4.13088 z m 227.3048,6.96093 c -0.7757,0.63035 43.0243,69.01247 44.2324,69.05079 -2.2158,30.24887 -2.7039,37.06085 -4.4805,71.71289 33.0193,1.93748 68.4887,5.41343 101.5527,5.87107 l 22.2266,0.26167 c 1.5319,-14.33522 2.7717,-44.3614 2.6856,-67.46289 -17.1877,-28.02383 -43.5182,-63.89782 -45.8809,-67.96093 -42.9869,-3.03605 -77.6002,-9.83429 -120.3359,-11.47266 z m -178.8438,144.84765 c -16.2465,-0.011 -20.2669,0.31422 -21.9941,0.63867 -0.2885,1.76039 -3.7541,1.83397 -8.7618,1.83397 h -12.3476 c -4.2822,27.86398 -14.151,48.79752 -27.8145,80.32621 78.3171,6.87011 163.1201,14.31102 242.8086,21.85348 41.7502,3.97158 61.6775,4.48512 70.6094,1.82033 43.7401,-22.04809 62.4008,-59.52191 75.6817,-95.59374 -74.8599,-5.24877 -159.447,-8.19049 -222.8301,-9.49023 -50.6315,-1.02526 -79.105,-1.37774 -95.3516,-1.38869 z m -151.56844,2.041 c -58.63294,-0.0109 -227.91286,3.18461 -282.97067,7.33597 0.0219,0.0219 0.0383,0.0493 0.0547,0.0761 -55.89313,3.31325 -78.35665,3.72355 -144.00977,4.83793 47.09625,71.17839 151.45407,102.76795 220.68162,108.74215 65.78735,5.90847 136.68262,-2.32959 203.28322,2.17775 72.26134,-7.10419 80.08454,-39.50158 107.59194,-122.17967 -34.3028,-0.53318 -69.4493,-0.98551 -104.62904,-0.99028 z" /><path
         id="path4470"
         style="color:#000000;display:inline;fill:#000000;stroke-linecap:square;-inkscape-stroke:none;paint-order:markers stroke fill"
         inkscape:label="прицел"
         d="M 900,-6.6015625 C 776.21886,6.9895845 659.97682,62.214599 571.0957,151.0957 482.2146,239.97683 426.98961,356.21879 413.39844,480 H 534.28125 C 547.22313,388.13015 589.57351,302.32098 655.94727,235.94727 722.32098,169.57351 808.13023,127.2231 900,114.28125 Z m 120,0 V 114.28125 c 91.8698,12.94185 177.6792,55.29226 244.0527,121.66602 19.235,19.2349 36.191,40.25783 51.2598,62.43164 4.3099,-4.91945 8.7402,-9.73399 13.4102,-14.33203 3.3839,-3.23507 6.6796,-6.56361 10.1503,-9.70508 16.8433,-15.24433 35.7295,-28.34752 55.9336,-38.70508 4.7661,-2.32242 9.4669,-4.78672 14.2989,-6.96875 1.0564,-0.47704 2.1525,-0.89642 3.2168,-1.36328 -18.696,-27.06694 -39.8336,-52.62458 -63.418,-76.20899 C 1260.0232,62.214599 1143.7812,6.9895845 1020,-6.6015625 Z M 900,242.70703 C 781.1045,266.81842 687.04649,361.11856 662.90625,480 H 786.66602 C 804.89651,426.78004 846.73406,384.97022 900,366.75781 Z m 120,0 v 78.30859 c 1.0864,-0.1628 2.1715,-0.34856 3.2578,-0.50781 6.0794,-0.89121 12.1479,-1.8864 18.2617,-2.49804 7.7311,-0.77344 15.5018,-1.10322 23.252,-1.6543 10.0701,-0.62907 20.1382,-0.87561 30.2012,-0.81055 14.1006,0.0912 28.1822,0.8725 42.2402,2.02344 0.9698,-0.30293 1.9334,-0.62615 2.9043,-0.92578 6.2606,-2.00624 12.6415,-3.4813 19.0723,-4.70899 C 1120.2316,277.7811 1072.5605,253.36603 1020,242.70703 Z m 447.5312,85.80078 c -1.5013,0.67924 -2.9565,1.4399 -4.4824,2.07617 -17.3404,7.43989 -35.1231,13.75121 -52.8164,20.29493 -14.0129,5.16284 -28.154,10.06541 -41.9472,15.79492 -3.2509,4.22749 -6.3473,8.56959 -9.3711,12.95898 4.6536,11.5889 8.7194,23.4073 12.3515,35.3711 14.5528,4.48556 29.2008,8.68498 43.416,14.18554 14.6882,6.05717 24.2255,10.21698 35.9688,22.39649 2.3304,2.41693 4.4767,5.18544 5.8652,8.25195 16.4783,2.65656 32.8703,5.85727 48.834,10.62891 -6.2489,-49.00685 -18.9971,-96.7346 -37.8184,-141.95899 z M 413.39844,600 C 426.98961,723.78121 482.2146,840.02317 571.0957,928.9043 659.97682,1017.7854 776.21886,1073.0104 900,1086.6016 V 965.71875 C 808.13023,952.7769 722.32098,910.42649 655.94727,844.05273 589.57351,777.67902 547.22313,691.86985 534.28125,600 Z m 249.50781,0 C 687.04649,718.88144 781.1045,813.18158 900,837.29297 V 713.24219 C 846.73406,695.02978 804.89651,653.21996 786.66602,600 Z M 1474.627,733.73242 c -13.2099,4.23262 -27.2763,7.14283 -40.3418,9.95508 -34.8691,6.67004 -69.98,12.1474 -105.1817,16.74609 -18.0161,30.1915 -39.762,58.33049 -65.0508,83.61914 C 1197.6792,910.42649 1111.8698,952.7769 1020,965.71875 v 120.88285 c 123.7812,-13.5912 240.0232,-68.8162 328.9043,-157.6973 55.8806,-55.88068 98.4318,-122.58706 125.7227,-195.17188 z M 1020,744.50391 v 92.78906 c 53.64,-10.87792 102.1339,-36.14023 141.5234,-71.40235 -16.3739,-1.99639 -32.677,-4.6791 -48.9199,-7.48828 -18.6188,-3.48481 -37.2082,-7.03697 -55.9414,-9.85351 -12.161,-1.83053 -24.4144,-2.94105 -36.6621,-4.04492 z"
         inkscape:export-filename=".\path4470.svg"
         inkscape:export-xdpi="94.840561"
         inkscape:export-ydpi="94.840561" /></g><g
       id="g5165"
       style="display:inline"
       inkscape:label="4"><path
         id="path5199"
         style="display:inline;opacity:1;fill:#ffffff;fill-opacity:1;stroke:none;stroke-width:4.26118;stroke-linecap:round;stroke-linejoin:bevel;stroke-dasharray:none;stroke-opacity:1;paint-order:fill markers stroke"
         d="m 1555.0176,156.98633 c -15.9422,15.38045 -27.4451,27.76466 -43.9805,44.97461 -12.9042,-11.25725 -22.5856,-22.24016 -36.3555,-37.16211 l -7.8144,50.14258 c -7.0729,3.42271 -21.1964,3.10801 -34.625,5.99218 1.9996,2.48161 8.5094,10.71127 19.3242,21.53125 -1.0546,2.33936 -2.2186,4.70641 -3.4394,7.08008 -12.432,3.60788 -21.8747,7.72101 -30.3868,13.66797 -0.3943,0.27549 -0.8186,0.50143 -1.209,0.78516 -4.3445,9.77234 -3.6258,14.128 -19.25,18.61328 -55.2693,15.86619 -124.3713,36.99517 -190.3964,57.54101 -10.7927,3.35848 -20.6002,6.44494 -30.9707,9.70313 -21.0714,6.62018 -44.847,13.90694 -62.9278,19.7168 -5.9728,1.97771 -20.2537,4.38909 -29.5468,6.42773 -3.0978,0.67954 -5.642,1.31804 -7.1387,1.88477 -5.6796,2.15052 8.1904,-3.84292 10.3379,-4.4961 l 10.8125,-3.88476 -3.6446,-2.10547 c 2.4159,1.3969 -4.9066,-2.20012 -13.373,-3.22656 -3.1531,-0.24274 -5.8402,-0.22905 -8.3574,-0.0996 -0.9385,0.0447 -1.8648,0.13823 -2.7403,0.23046 -1.4551,0.16096 -2.8647,0.39353 -4.1972,0.67969 -2.6091,0.54873 -5.1664,1.30267 -7.6719,2.29492 -0.034,0.0135 -0.068,0.0216 -0.1016,0.0352 -2.8439,1.13185 -5.7691,2.44117 -9.1504,4.07227 1.5529,-2.24945 4.0547,-3.98564 6.8106,-5.45899 5e-4,2.8e-4 0,-2.7e-4 0,0 6.3987,-3.42054 14.0254,-4.92806 17.5567,-5.77344 0.4959,-0.11434 1.3002,-0.31575 1.5996,-0.40429 0.1781,-0.06 0.2721,-0.13706 0.3418,-0.1875 0.2857,-0.18833 0.029,-0.33721 -1.6875,-0.45508 -2.8576,-0.19598 -13.7682,-1.39272 -24.2461,-2.66016 -5.9111,-0.71499 -8.7087,-0.89295 -13.5918,-1.45312 v 0.004 c -10.8732,-1.20947 -21.4833,-2.29288 -30,-2.95507 v -0.25391 c -6.48523,-0.53579 -14.62325,-0.78841 -21.56055,-1.15625 -1.07845,-0.0544 -2.0783,-0.15449 -3.17968,-0.20703 -0.0157,0.0121 -0.0351,0.023 -0.0508,0.0351 -6.02775,-0.29691 -10.69354,-0.72095 -18.21093,-0.97656 -21.10154,-0.71761 -35.16174,-1.375 -46.99805,-1.39648 v 29.39648 l -10.14648,3.46875 c -37.46457,12.80969 -68.65071,38.39104 -88.75782,71.59375 30.87236,-9.03082 60.11528,-17.59988 96.83203,-28.15234 l 80.13868,6.42773 c 44.0749,3.53425 80.7761,6.95839 81.5606,7.60938 0.7844,0.65105 2.0559,2.69982 2.8242,4.55469 1.1395,2.75093 2.281,3.49728 6.1875,4.04492 1.9871,0.27857 12.4888,1.33337 18.1172,1.99414 11.3064,1.32738 19.1601,2.1009 36.3945,4.00586 29.5917,3.27084 62.3043,7.0629 62.4902,6.87695 0.2196,-0.21951 -1.4514,-2.94332 -3.7129,-6.05469 -2.2613,-3.11129 -11.6875,-17.08822 -20.9472,-31.05859 -9.2599,-13.97045 -17.8041,-26.771 -18.9864,-28.44531 l -2.1503,-3.04297 -8.3829,2.70703 c -4.6118,1.48969 -14.3612,4.62352 -21.664,6.96484 -5.3512,1.71569 -12.528,3.51954 -18.5586,5.12696 -2.1993,0.58619 -5.5728,1.49835 -6.7676,1.87109 0.802,10.76433 -5.2716,17.14666 -13.2676,20.76172 -6.7342,3.04518 -14.8121,4.15611 -21.4902,3.97265 -11.2674,-2.18232 -23.5808,-7.52203 -27.582,-16.80859 -3.9038,-9.00579 -4.7438,-18.01202 -3,-24.5957 0.1743,-0.80728 0.3893,-1.40404 0.5566,-2.14844 0.8875,-3.94858 1.809,-7.25326 4.8125,-10.23828 -1.2215,3.92058 -1.5638,8.05602 -1.7109,11.93945 -0.046,1.22085 -0.1602,2.52233 -0.1641,3.64844 0,10.81015 3.881,19.56693 11.7402,26.48437 1.6226,1.3041 3.4965,2.29551 5.4688,3.12891 0.3621,0.15447 0.7009,0.32537 1.0722,0.46484 0.7374,0.27385 1.5382,0.38496 2.3067,0.59961 1.9685,0.56133 3.9602,0.98939 6.0586,1.1836 0.5975,0.0512 1.177,0.0481 1.7793,0.0703 2.4039,0.1077 4.7694,0.004 7.1484,-0.32617 0.2846,-0.0414 0.555,-0.0796 0.8379,-0.12695 2.7566,-0.44311 5.3682,-1.14225 7.8262,-2.13086 0,-0.002 0.01,-0.002 0.014,-0.004 7.3533,-2.96122 12.8998,-8.11635 12.9804,-15.10156 -1.3145,-0.92076 -2.3887,-2.40291 -2.3886,-3.29493 3.4272,-1.02094 6.8999,-2.11344 10.3339,-3.14257 0,-10e-4 0.01,-0.003 0.012,-0.004 30.6361,-9.18138 61.3884,-18.62302 92.1289,-28.18555 10.0569,-3.12843 20.0552,-6.252 30.0683,-9.38671 32.8558,-10.28588 63.8833,-19.88051 95.6426,-29.8418 9.8486,-3.089 19.5555,-6.10118 29.2383,-9.1211 20.2999,-6.33121 41.9216,-13.2135 61.2988,-19.11914 6.0263,-1.24434 13.2742,-1.17891 19.1231,0.46094 2.0873,0.58531 3.9667,0.91474 5.8593,1.07422 1.6531,0.17756 3.7999,0.14409 5.7813,0.0352 1.295,-0.0712 2.2955,-0.003 3.9199,-0.18555 8.9453,-2.01597 16.704,-6.01327 24.1621,-10.90625 0.2524,-0.16556 0.5257,-0.27957 0.7774,-0.44727 0.01,0.70607 0.062,1.622 0.074,2.33008 2e-4,5.4e-4 -3e-4,10e-4 0,0.002 0.1701,10.24672 0.782,20.57475 1.082,33.71876 3.239,-3.07372 6.4778,-6.14722 9.7168,-9.22071 8.6262,-8.18548 17.2525,-16.37051 25.8789,-24.55664 11.474,15.15129 20.3163,29.14318 32.5527,47.05469 -2.9199,-18.7512 -5.4074,-37.11503 -8.4609,-53.91211 26.9396,2.65488 47.1923,4.30787 76.5176,7.35547 -23.5049,-17.33804 -41.1516,-30.61965 -65.9668,-49.23242 9.5861,-4.55249 18.1761,-8.28945 27.0351,-12.13868 8.8595,-3.84946 17.9897,-7.81198 28.6543,-12.8164 -13.0996,-1.92624 -24.3724,-1.68981 -36.9648,-2.72461 -4.1972,-0.34488 -8.5398,-0.83179 -13.1465,-1.58594 2.6106,-22.31471 4.8182,-38.38315 7.2305,-63.9707 z m -15.0957,35.32422 -14.6114,40.07812 28.9688,0.95313 -33.8672,17.07226 32.5762,25.72461 -31.8965,-7.21875 -1.4395,22.07813 -13.0468,-17.09571 -22.9356,31.29688 -1.8008,-29.19141 -21.6211,1.60157 -17.5449,1.29882 11.7715,-11.91211 18.7207,-18.9414 -16.3125,-19.25781 25.2559,0.12304 2.3906,-26.76953 22.7187,23.18945 z m -47.3047,33.05664 v 15.21875 l -15.9453,-0.72461 11.1133,10.63086 -30.295,21.90429 -1.1113,0.80274 1.3711,-0.33789 31.9668,-7.875 -1.4492,23.1914 15.2207,-27.05664 13.2851,15.70313 -8.455,-23.4336 13.8574,8.65821 -11.1992,-17.11328 0.9668,-1.20899 9.1796,-18.35937 -19.8105,14.97851 z M 885,350.16406 c -1.31212,0.18502 -2.4536,0.23443 -3.82227,0.45117 -2.26542,0.35856 -10.61213,2.61263 -18.64062,6.02539 -12.20766,5.18926 -16.44837,7.71057 -25.9082,15.39649 -31.29635,23.94272 -47.92441,61.97177 -66.3418,92.68359 -0.0697,0.11724 -0.0792,0.16486 -0.14649,0.2793 h 3.11329 c 1.22307,-0.36855 2.28649,-0.65403 3.49609,-1.01758 20.14905,-48.91918 59.15151,-87.75655 108.25,-107.61719 z m 200.6602,10.13672 c -0.1281,0.004 -0.2058,0.0168 -0.2227,0.0332 -0.4495,0.44943 9.723,3.25109 17.2656,7.49805 1.8208,1.02526 4.9499,-0.71427 7.2793,-1.44141 2.3293,-0.72706 4.5361,-1.62291 4.9024,-1.99023 0.3662,-0.36677 -3.5417,-1.31086 -8.6817,-2.09766 -4.8189,-0.73763 -18.6167,-2.05797 -20.5429,-2 z m -172.39067,71.58203 c -45.99508,8.56202 -61.01854,13.45777 -98.46875,23.01953 -5.52326,9.46092 -10.32849,19.40617 -13.94336,29.95899 L 797.38281,495 H 697.05273 c -25.2367,7.45768 -51.80211,15.33588 -53.63867,16.23242 0.0219,0.0553 0.0438,0.1244 0.0684,0.17969 -18.97324,5.15246 -35.47543,9.77924 -54.02539,16.29297 -2.17974,0.7654 -4.11503,1.27321 -6.36719,2.10351 -12.31749,10.82476 -18.47911,23.01783 -27.15234,38.57618 -4.06366,13.50457 -0.88104,33.56838 0.61719,48.63671 0.0478,-10e-4 0.0754,-0.003 0.12304,-0.004 1.2e-4,10e-4 -1.1e-4,0.003 0,0.004 34.68443,-0.94017 62.00446,-2.28907 94.00977,-3.80859 -0.81319,-3.4154 -1.77865,-6.77234 -2.48047,-10.22851 L 644.55469,585 h 152.82812 l 3.47461,10.13867 c 1.51134,4.41204 3.39561,8.63264 5.25196,12.86524 l 86.58398,-2.48633 127.18754,-3.65235 85.0156,0.58594 0.8652,-40.18164 c 0.8648,-40.15597 0.8633,-40.18521 -1.7031,-44.80078 -1.4124,-2.54003 -9.5631,-19.42531 -18.1152,-37.52344 -8.5518,-18.09753 -15.9735,-33.33463 -16.4903,-33.85742 -1.1329,-1.1458 -116.50982,-11.75325 -156.18357,-14.20508 z m 171.69137,24.25391 c -0.1598,0.003 -0.2517,0.0113 -0.2714,0.0332 -1.1486,1.14865 23.4416,51.60562 27.498,56.35742 5.6632,17.0066 0.649,76.36006 1.4141,86.36328 1.3605,0.0303 2.6133,0.0482 3.9765,0.0781 52.9315,1.16293 103.6284,2.09038 154.4082,3.06445 23.7741,0.45605 50.9026,0.90917 72.291,1.43555 1.2934,-21.94622 1.6493,-42.74334 3.3575,-71.11914 -13.6035,-23.40329 -27.5184,-47.08184 -43.0586,-68.88086 -7.4856,1.84651 -16.8075,5.03289 -26.6543,7.44531 -2.5851,-0.13957 -5.1248,-0.30342 -7.7168,-0.44336 -30.6351,-1.65387 -61.3666,-3.38005 -90.1016,-5.4707 -0.028,-0.002 -0.052,-0.004 -0.08,-0.006 -13.2162,-0.96221 -25.7892,-2.03237 -37.7851,-3.19726 0,-1.9e-4 0,1.8e-4 -0.01,0 -5.2763,-0.51239 -10.9028,-0.96802 -15.8711,-1.5293 -9.8644,-1.12086 -12.0861,-1.19651 -19.2715,-1.92188 0,0 10e-5,-0.002 0,-0.002 -8.2506,-0.83292 -20.8455,-2.23173 -22.1289,-2.20703 z m 227.3047,6.96094 c -0.7757,0.63035 43.0243,69.01246 44.2324,69.05078 -2.2158,30.24863 -2.7038,37.06109 -4.4804,71.71289 5.7534,0.3376 11.8129,0.80988 17.6894,1.21679 27.8489,1.92837 56.5606,4.2764 83.8633,4.6543 l 22.2266,0.26172 c 0.6288,-5.8846 1.1407,-15.3857 1.5996,-24.99414 0.6589,-13.79814 1.1367,-28.85055 1.0859,-42.46875 -4.503,-7.34192 -9.6166,-15.17445 -14.7793,-22.88086 -3.4544,-5.16079 -6.6562,-9.80342 -9.9746,-14.59961 -2.9511,-4.27559 -4.3544,-6.38637 -6.9219,-10.05078 -6.711,-9.57843 -13.2395,-18.76929 -14.205,-20.42969 -22.8753,-1.61558 -43.4088,-4.26412 -64.0274,-6.66601 -0.077,-0.009 -0.157,-0.0164 -0.2344,-0.0254 -8.7388,-1.01706 -17.5059,-1.99207 -26.4785,-2.80469 -9.5508,-0.87388 -19.3284,-1.58294 -29.5957,-1.97656 z m -535.63474,1.14453 c -1.22061,0.28891 -1.83812,0.46162 -3.09766,0.75781 h 2.74414 c 0.10522,-0.25966 0.24724,-0.49872 0.35352,-0.75781 z m 356.79104,143.70312 c -16.2465,-0.011 -20.267,0.31422 -21.9942,0.63867 -0.1442,0.8802 -1.0829,1.33773 -2.6113,1.57618 -1.5284,0.23844 -3.6465,0.25781 -6.1504,0.25781 h -12.3476 c -0.6816,4.43496 -1.5469,8.67426 -2.5176,12.8418 -0.1788,0.77524 -0.3744,1.54018 -0.5625,2.30859 -0.6898,2.7901 -1.4897,5.52546 -2.3008,8.25586 -1.0368,3.5252 -2.2053,7.0395 -3.4336,10.54492 -2.2327,6.33121 -4.656,12.689 -7.4375,19.35547 -3e-4,8e-4 0,10e-4 0,0.002 -3.4936,8.37278 -7.2589,17.09142 -11.5606,27.01758 7.7429,0.67922 16.1473,1.47023 24.0059,2.16016 36.2104,3.17904 73.2836,6.60272 110.6132,9.95508 11.4243,1.02594 22.4567,2.01012 33.8516,3.04687 25.0233,2.2767 49.9408,4.38222 74.3379,6.69141 33.3903,3.17626 52.4448,4.0437 63.457,2.93945 2.7572,-0.27647 5.3639,-0.58555 7.1524,-1.11914 43.7393,-22.04793 62.4007,-59.52224 75.6816,-95.59375 -17.3286,-1.215 -35.239,-2.2779 -53.2265,-3.25391 -10.0693,-0.54636 -20.0408,-0.98934 -30.129,-1.46484 -49.7422,-2.34457 -98.9769,-3.94104 -139.4746,-4.77149 -50.6307,-1.02518 -79.1049,-1.37772 -95.3515,-1.38867 z m -151.56838,2.04102 c -34.90808,-0.006 -107.81203,1.20443 -173.70508,2.99609 19.226,40.26903 53.94031,71.4445 96.70508,86.06641 L 915,702.51758 v 29.44726 c 23.05878,1.19141 42.05959,1.19141 63.89258,1.19141 4.90682,-0.4824 9.46381,-1.10659 13.80273,-1.83008 0.13839,-0.0236 0.26061,-0.0562 0.39844,-0.0801 4.22188,-0.71461 8.16725,-1.56349 11.89845,-2.52343 0,-6.9e-4 0.01,-10e-4 0.01,-0.002 31.6948,-8.15659 46.5903,-25.859 59.7031,-56.7207 6.9795,-16.4265 13.53,-36.22317 21.7813,-61.02344 -34.3028,-0.53318 -69.4492,-0.98546 -104.62893,-0.99023 z M 746.3125,615 c -18.38661,0.73674 -36.40143,1.49073 -47.42969,2.32227 0.0219,0.0219 0.0383,0.0494 0.0547,0.0762 -6.54098,0.38774 -10.24797,0.44576 -15.99609,0.75976 11.40683,40.13975 31.33476,76.75668 57.67773,107.8125 12.23475,2.25255 24.1283,4.07045 34.99024,5.00782 35.4735,3.18592 72.42095,2.3067 109.39062,1.48242 V 723.6348 C 835.55285,703.63307 796.2987,664.41069 776.27734,615 Z m -94.07227,4.61523 c -18.40185,0.76718 -37.01799,1.32977 -58.68554,1.84961 -0.002,-0.0132 -0.006,-0.0278 -0.008,-0.041 -11.50286,0.26264 -18.71412,0.52811 -35.46876,0.8125 0.78953,1.19323 1.70919,2.22962 2.51954,3.39648 2.00891,2.88305 4.09686,5.69897 6.26562,8.44727 9.65735,12.34384 20.60761,23.26483 33.23047,32.93945 27.5273,21.63801 60.58312,37.1663 94.46484,47.625 -19.00586,-28.78995 -33.41249,-60.80639 -42.31836,-95.0293 z"
         inkscape:label="танк" /><path
         id="path5193"
         style="color:#000000;display:inline;fill:#ffffff;stroke-width:30;stroke-linecap:square;-inkscape-stroke:none;paint-order:markers stroke fill"
         d="M 900,-6.6015625 C 776.2233,6.9890813 659.97349,62.218003 571.0957,151.0957 482.21793,239.9735 426.98887,356.22323 413.39844,480 H 534.28125 C 547.22276,388.13348 589.57573,302.31839 655.94727,235.94727 722.31839,169.57573 808.13356,127.22273 900,114.28125 Z m 120,0 V 114.28125 c 78.9895,11.12752 153.3252,44.23921 214.8262,95.46289 6.0665,-3.25646 12.9943,-6.15768 20.8808,-8.53125 3.3514,-1.00866 12.8606,-4.30124 18.3242,-6.125 17.5501,-6.31978 35.8785,-9.7198 54.2364,-12.6543 14.5674,-2.31151 29.1019,-4.75114 43.7304,-6.58203 -7.45,-8.43976 -15.0852,-16.7474 -23.0937,-24.75586 C 1260.0269,62.218003 1143.7775,6.9890813 1020,-6.6015625 Z M 900,242.70703 C 781.10894,266.81768 687.04575,361.123 662.90625,480 H 786.66602 C 804.89577,426.78189 846.73591,384.96948 900,366.75781 Z M 413.39844,600 c 13.59043,123.77677 68.81949,240.0265 157.69726,328.9043 88.87779,88.8774 205.1276,144.1061 328.9043,157.6973 V 965.71875 C 808.13356,952.77727 722.31839,910.42427 655.94727,844.05273 589.57573,777.68161 547.22276,691.86652 534.28125,600 Z m 249.50781,0 C 687.04575,718.877 781.10894,813.18232 900,837.29297 V 713.24219 C 846.73591,695.03052 804.89577,653.21811 786.66602,600 Z m 837.81445,39.41797 c -10.0073,11.87582 -19.9033,23.84395 -30.0078,35.63867 -15.0244,17.54509 -30.0458,35.08843 -45.4453,52.30664 -10.2459,11.90836 -21.5864,22.75505 -33.4942,32.9707 -28.7516,24.66873 -55.7551,24.83241 -70.7734,12.64844 -16.3816,25.40093 -35.2365,49.36071 -56.9473,71.07031 C 1197.6829,910.42427 1111.8661,952.77727 1020,965.71875 v 120.88285 c 123.7775,-13.5912 240.0269,-68.8199 328.9043,-157.6973 79.3694,-79.37012 131.8059,-180.59336 151.8164,-289.48633 z M 1020,809.38672 v 27.90625 c 17.7109,-3.59175 34.7818,-8.91483 51.2383,-15.47461 -17.3856,-0.33384 -21.4688,0.0766 -43.8301,-8.08398 -2.6951,-0.98357 -5.0822,-2.61731 -7.4082,-4.34766 z M 900,-6.6015625 C 776.2191,6.9895573 659.97664,62.214783 571.0957,151.0957 482.21478,239.97665 426.98957,356.21903 413.39844,480 h 120.88281 c 1.61773,-11.48372 3.69448,-22.87244 6.2207,-34.14062 C 558.18556,366.98204 597.87033,294.02414 655.94727,235.94727 722.32084,169.57363 808.13041,127.22308 900,114.28125 Z m 120,0 V 114.28125 c 91.8697,12.94184 177.6793,55.29232 244.0527,121.66602 4.8633,4.8632 9.558,9.86128 14.1582,14.92968 11.9362,13.2487 22.781,27.29605 32.9356,41.77539 28.2184,-8.47921 57.9805,-17.56482 81.9961,-24.45898 6.5156,-1.87047 6.576,-2.64365 6.3183,-2.32422 -0.2577,0.31943 0.7316,-2.04183 3.3653,-7.96484 l 1.6328,-3.67578 3.2539,-2.36329 c 4.6488,-3.37878 9.6909,-6.08302 14.9297,-8.55859 -3.4275,-5.34303 -6.7293,-10.75996 -10.3379,-15.99414 0.01,-0.003 0.012,-0.005 0.018,-0.008 -5.4617,-7.907 -11.1958,-15.64147 -17.0743,-23.2793 -1.9688,-2.55818 -4.0073,-5.0639 -6.0234,-7.58984 -4.428,-5.54972 -8.9672,-11.01733 -13.6211,-16.40625 -2.047,-2.36862 -4.0734,-4.74771 -6.164,-7.08399 -6.6485,-7.4348 -13.4445,-14.75891 -20.5352,-21.84961 C 1260.0234,62.214783 1143.781,6.9895573 1020,-6.6015625 Z M 900,242.70703 c -111.46431,22.60439 -201.09995,106.89923 -231.75977,215.30274 -2.04398,7.2269 -3.82522,14.56015 -5.33398,21.99023 h 31.77539 c 2.81153,-0.82921 5.05089,-1.50654 7.87695,-2.33789 15.19394,-4.46966 30.25565,-8.87157 41.54883,-12.16016 4.26389,-1.24164 7.32127,-2.12778 10.31641,-2.99609 0.84281,-1.70562 1.73512,-3.37358 2.9707,-5.45117 l 0.0156,-0.0254 0.0137,-0.0234 c 17.64538,-29.42446 34.72695,-69.78423 70.02929,-96.82617 9.75757,-7.89766 16.67804,-12.01376 29.2168,-17.34375 9.2839,-3.94643 15.92887,-6.0484 22.16211,-7.03516 7.55955,-1.19714 14.35794,-1.82546 21.16797,-2.2207 z m 120,0 v 78.30859 17.30079 c 9.1577,0.91432 17.3129,1.65616 30.3926,3.23828 26.8651,1.95419 50.1316,4.80598 71.5644,9.48823 17.3522,-5.54551 38.8965,-12.13989 58.4004,-18.25781 -15.9768,-15.82011 -30.7216,-29.49516 -46.709,-40.79103 -12.8305,-9.0287 -26.7145,-17.34976 -40.1738,-24.04687 -17.3538,-7.45166 -34.0147,-14.77554 -50.6543,-19.56836 -7.5058,-2.14971 -15.0908,-4.10438 -22.8203,-5.67188 z m 436.5742,77.83203 c -2.3937,0.80651 -4.8356,1.55284 -7.4004,2.13086 l -0.8047,0.18164 -0.8203,0.0918 c -7.7209,0.86684 -14.712,0.45589 -21.2832,-1.38672 -2.7753,-0.77812 -8.1256,-0.91707 -11.7226,-0.23828 -23.0103,7.01668 -47.8049,14.83089 -72.1016,22.42773 8.9469,17.4565 16.7345,35.47662 23.2109,53.98243 1.9811,5.71914 3.8534,11.47839 5.6133,17.27539 0.01,0.002 0.013,0.004 0.02,0.006 3.8992,12.85918 6.9862,25.9697 9.6777,39.18164 17.1149,2.03979 34.1996,4.10971 52.6953,5.41601 l 7.9199,0.56055 3.9903,6.86328 c -0.6737,-1.1584 2.0069,2.96713 5.0586,7.31445 1.0359,1.47587 2.7128,3.87605 3.9628,5.6543 h 52.0118 c -3.0194,-27.49812 -8.2106,-54.58814 -15.2598,-81.12109 -0.1245,-0.46989 -0.2434,-0.94064 -0.3691,-1.41016 -3.0835,-11.48326 -6.5088,-22.85842 -10.3223,-34.10156 -0.1664,-0.49142 -0.3498,-0.97587 -0.5176,-1.4668 -1.3798,-4.03066 -3.0418,-7.95348 -4.5098,-11.95117 l -17.875,16.96289 -0.7734,-33.83594 c -0.1083,-4.74315 -0.2343,-8.30421 -0.4004,-12.53711 z m -556.5742,43 c -5.27175,0.3671 -10.5445,0.95317 -16.47656,1.89258 1.70287,-0.26952 -8.34497,2.13493 -15.11719,5.01367 -11.74883,4.99422 -13.31528,5.91955 -22.31836,13.23438 l -0.16992,0.13867 -0.17383,0.13281 c -18.46127,14.12347 -31.7593,35.16345 -44.43164,57.13867 1.74782,-0.51445 3.70428,-1.0655 5.44336,-1.57617 C 828.69632,405.92536 861.2193,380.01751 900,366.75781 Z m 318.1523,19.00586 c -14.1457,4.41838 -27.9841,8.80696 -42.1953,13.19727 3.6357,5.4268 6.486,9.64901 12.5274,18.76367 9.215,13.90318 19.2217,28.66109 20.5781,30.52734 1.7653,2.42252 3.3116,4.75949 4.5859,7.1543 12.0022,0.73794 24.2865,1.40718 36.4825,2.10156 -7.5738,-25.47099 -18.3585,-49.51256 -31.9786,-71.74414 z M 769,459.55273 768.54297,480 h 6.63086 L 769.75,459.74219 c -0.2462,-0.0471 -0.5109,-0.16026 -0.75,-0.18946 z m 18.94141,17.36915 c -4.57854,1.101 -7.3994,1.85981 -12.59766,3.07812 h 11.32227 c 0.36264,-1.05866 0.89226,-2.02977 1.27539,-3.07812 z M 413.39844,600 c 13.59113,123.78097 68.81634,240.02335 157.69726,328.9043 88.88094,88.8809 205.1234,144.1061 328.9043,157.6973 V 965.71875 C 808.13041,952.77692 722.32084,910.42637 655.94727,844.05273 597.44362,785.54914 557.66932,711.92884 540.18164,632.38477 l -0.32226,0.01 -0.38868,-3.91406 c -0.23268,-1.10685 -0.38534,-2.23274 -0.60937,-3.3418 l -11.53516,-17.43555 8.33203,-0.14062 c -0.40331,-2.53412 -1.01861,-5.0188 -1.37695,-7.5625 z m 1078.06636,0 c -0.2696,3.70328 -0.4441,8.70779 -0.7519,11.58789 l -1.4492,13.56641 -23.9219,-0.28125 c -13.6986,36.9773 -34.7284,78.77457 -82.668,102.93945 l -1.1875,0.59961 -1.2754,0.38086 c -8.9566,2.67217 -19.8224,2.99368 -35.1953,2.13086 -5.1867,10.40396 -10.6467,20.67617 -16.6484,30.66211 -8.5614,14.24552 -17.9588,28.02612 -28.166,41.26562 -0.9258,1.19871 -1.8871,2.3728 -2.8262,3.5625 -4.0813,5.17927 -8.3026,10.26134 -12.6348,15.26367 -1.3639,1.57275 -2.7131,3.15627 -4.1015,4.71094 -5.3644,6.01379 -10.8556,11.93371 -16.586,17.66406 C 1197.6794,910.42637 1111.8696,952.77692 1020,965.71875 v 120.88285 c 123.781,-13.5912 240.0234,-68.8164 328.9043,-157.6973 6.3913,-6.39127 12.5574,-12.96207 18.5977,-19.62891 1.8348,-2.02545 3.6023,-4.09842 5.4042,-6.14844 4.2172,-4.79667 8.3563,-9.64691 12.3926,-14.57422 1.8962,-2.31527 3.775,-4.63913 5.6309,-6.98242 4.0954,-5.16955 8.077,-10.41338 11.9746,-15.71484 1.4209,-1.93329 2.881,-3.83878 4.2754,-5.78906 5.2815,-7.3847 10.4092,-14.86568 15.3066,-22.48438 4.8466,-7.53949 9.4498,-15.21717 13.9141,-22.9707 1.1443,-1.98813 2.2346,-4.00233 3.3535,-6.00391 3.3392,-5.97112 6.5701,-11.99569 9.6816,-18.08203 1.132,-2.21503 2.2578,-4.43049 3.3594,-6.66016 3.2334,-6.54206 6.3275,-13.14588 9.2969,-19.80859 0.6845,-1.53629 1.4097,-3.05328 2.0801,-4.5957 3.6912,-8.4908 7.1963,-17.0614 10.4551,-25.72852 16.1166,-42.86515 26.9283,-87.77404 31.9746,-133.73242 z m -692.04878,28.19141 c -28.0203,0.79341 -54.46018,1.66333 -74.67188,2.63867 l 0.0371,0.0625 -24.95508,1.48047 c -10.55993,0.62597 -18.45219,0.88241 -27.55273,1.32422 7.89847,24.13393 18.56698,46.99707 31.93359,68.08398 25.78759,7.70373 51.10615,12.39097 72.69336,14.25391 l 0.0254,0.002 0.0254,0.002 c 39.00925,3.50349 80.79704,1.90433 123.04883,1.12305 v -3.91992 C 856.61157,698.40705 821.05644,667.75406 799.41602,628.19141 Z m 264.41598,77.72851 c -0.7898,1.14363 -1.5136,2.35176 -2.3418,3.46094 -10.2649,13.74801 -23.8844,23.60611 -41.4902,30.12305 v 5 92.78906 c 6.0725,-1.23148 12.0557,-2.70491 17.9922,-4.29688 1.6788,-0.45085 3.3367,-0.94658 5.0039,-1.42578 4.5382,-1.30213 9.0312,-2.70563 13.4805,-4.21289 1.458,-0.49499 2.9211,-0.97352 4.3691,-1.49023 6.8281,-2.43096 13.5123,-5.14744 20.1074,-8.04688 6.9928,-3.08181 13.8201,-6.45954 20.5274,-10.04492 2.6398,-1.40791 5.2526,-2.83911 7.8457,-4.32227 6.4598,-3.70228 12.7965,-7.58986 18.9511,-11.74218 2.5778,-1.7367 5.0706,-3.56989 7.5918,-5.38282 5.0397,-3.62734 9.97,-7.38847 14.7754,-11.30859 2.644,-2.15653 5.2587,-4.32778 7.8282,-6.57031 1.0001,-0.87242 2.0621,-1.67351 3.0507,-2.5586 -0.089,-0.0108 -0.1767,-0.0301 -0.2656,-0.041 15.9226,-14.24882 30.3978,-30.06686 43.1016,-47.2793 -47.3936,-4.26893 -95.1032,-8.66564 -140.5274,-12.65039 z m -331.25192,33.83985 c 0.18972,0.21566 0.3567,0.45074 0.54687,0.66601 1.73135,1.9599 3.55552,3.82365 5.33594,5.73828 3.99532,4.29654 8.08409,8.49241 12.31836,12.55274 2.09947,2.01329 4.22082,3.99023 6.37695,5.94336 4.35962,3.94917 8.84693,7.74296 13.42969,11.4375 2.02511,1.63265 4.00127,3.31321 6.06836,4.89453 6.6618,5.09626 13.47852,9.99798 20.55469,14.53906 7.06545,4.53421 14.37847,8.69901 21.82422,12.64648 2.31144,1.2255 4.68717,2.32729 7.0332,3.49415 5.30722,2.6397 10.6783,5.15109 16.1543,7.48242 2.72146,1.15868 5.45574,2.27312 8.21679,3.35351 5.54219,2.16869 11.17006,4.14164 16.86328,5.98633 2.54818,0.82568 5.06187,1.71354 7.63868,2.47266 8.22898,2.4243 16.55929,4.60255 25.05859,6.32617 V 747.2793 c -41.6551,0.84101 -84.18867,2.36978 -125.73242,-1.36133 -12.88145,-1.11348 -27.0891,-3.34344 -41.6875,-6.1582 z"
         inkscape:label="прицел" /></g></g></svg>
