<?xml version="1.0" encoding="UTF-8" standalone="no"?>
<svg
   width="1810"
   height="705"
   viewBox="0 0 1810 705"
   fill="none"
   version="1.1"
   id="svg51"
   sodipodi:docname="звания со стрелочками.svg"
   inkscape:version="1.2 (dc2aedaf03, 2022-05-15)"
   xmlns:inkscape="http://www.inkscape.org/namespaces/inkscape"
   xmlns:sodipodi="http://sodipodi.sourceforge.net/DTD/sodipodi-0.dtd"
   xmlns="http://www.w3.org/2000/svg"
   xmlns:svg="http://www.w3.org/2000/svg">
  <sodipodi:namedview
     id="namedview53"
     pagecolor="#505050"
     bordercolor="#ffffff"
     borderopacity="1"
     inkscape:showpageshadow="0"
     inkscape:pageopacity="0"
     inkscape:pagecheckerboard="1"
     inkscape:deskcolor="#505050"
     showgrid="false"
     inkscape:zoom="0.67734807"
     inkscape:cx="852.58972"
     inkscape:cy="353.58483"
     inkscape:window-width="1680"
     inkscape:window-height="1028"
     inkscape:window-x="1358"
     inkscape:window-y="-8"
     inkscape:window-maximized="1"
     inkscape:current-layer="svg51" />
  <g
     clip-path="url(#clip0_143_2)"
     id="g36">
    <path
       d="M882 377H1582L1810 705H882V377Z"
       fill="#1E0334"
       id="path2" />
    <g
       mask="none"
       id="g11"
       clip-path="url(#clipPath288)">
      <rect
         x="870"
         y="437"
         width="940"
         height="60"
         fill="#FF2342"
         id="rect7" />
      <rect
         x="843"
         y="585"
         width="940"
         height="60"
         fill="#FF2342"
         id="rect9" />
    </g>
    <path
       d="M1150 479L1164.59 523.914H1211.82L1173.61 551.672L1188.21 596.586L1150 568.828L1111.79 596.586L1126.39 551.672L1088.18 523.914H1135.41L1150 479Z"
       fill="white"
       id="path13" />
    <path
       d="M0 0H700L928 328H0V0Z"
       fill="#1E0334"
       id="path15" />
    <g
       mask="none"
       id="g22"
       clip-path="url(#clipPath283)">
      <rect
         x="-34"
         y="134"
         width="940"
         height="60"
         fill="#FF2342"
         id="rect20" />
    </g>
    <path
       d="M145 30L155.103 61.0942H187.798L161.347 80.3115L171.45 111.406L145 92.1885L118.55 111.406L128.653 80.3115L102.202 61.0942H134.897L145 30Z"
       fill="white"
       id="path24" />
    <path
       d="M145 211L155.103 242.094H187.798L161.347 261.312L171.45 292.406L145 273.188L118.55 292.406L128.653 261.312L102.202 242.094H134.897L145 211Z"
       fill="white"
       id="path26" />
    <path
       d="M273 119L283.103 150.094H315.798L289.347 169.312L299.45 200.406L273 181.188L246.55 200.406L256.653 169.312L230.202 150.094H262.897L273 119Z"
       fill="white"
       id="path28" />
    <path
       d="M401 119L411.103 150.094H443.798L417.347 169.312L427.45 200.406L401 181.188L374.55 200.406L384.653 169.312L358.202 150.094H390.897L401 119Z"
       fill="white"
       id="path30" />
    <path
       d="M784.487 12.096V30.784C787.858 30.784 790.311 30.6133 791.847 30.272C793.383 29.9307 794.813 29.1627 796.135 27.968C796.903 27.2427 797.522 26.304 797.991 25.152C798.461 23.9573 798.951 22.4427 799.463 20.608C799.933 18.944 800.359 17.5787 800.743 16.512C801.17 15.4027 801.703 14.4853 802.343 13.76C803.709 12.224 805.629 11.456 808.103 11.456C809.895 11.456 811.666 11.84 813.415 12.608L811.431 17.024C810.194 16.5547 809.021 16.32 807.911 16.32C806.973 16.32 806.333 16.512 805.991 16.896C805.65 17.28 805.351 17.8347 805.095 18.56C804.882 19.2427 804.605 20.224 804.263 21.504C804.007 22.656 803.687 23.7867 803.303 24.896C802.749 26.6027 802.045 28.1387 801.191 29.504C800.338 30.8267 799.165 31.9787 797.671 32.96C799.506 33.9413 800.957 35.0293 802.023 36.224C803.09 37.4187 803.815 38.4 804.199 39.168C804.583 39.8933 805.202 41.2373 806.055 43.2C807.122 45.6747 808.146 47.7653 809.127 49.472C810.109 51.1787 811.197 52.2453 812.391 52.672L810.791 57.28C809.298 56.768 807.975 55.872 806.823 54.592C805.671 53.2693 804.711 51.8827 803.943 50.432C803.218 48.9387 802.386 47.0827 801.447 44.864C800.551 42.7733 799.933 41.472 799.591 40.96C798.525 39.424 797.095 38.1653 795.303 37.184C793.511 36.16 791.698 35.648 789.863 35.648H784.487V56.128H779.239V12.096H784.487ZM822.467 56.576C820.803 56.576 819.459 56.1707 818.435 55.36C817.411 54.5067 816.75 53.4187 816.451 52.096L820.227 50.048C820.355 50.6027 820.569 51.0507 820.867 51.392C821.209 51.6907 821.593 51.84 822.019 51.84C822.446 51.84 822.809 51.6907 823.107 51.392C823.406 51.0507 823.683 50.5813 823.939 49.984L839.939 11.968H842.115L860.867 56.064H855.299L849.411 41.92H832.771L828.227 52.8C827.758 53.952 826.969 54.8693 825.859 55.552C824.75 56.2347 823.619 56.576 822.467 56.576ZM847.235 37.184L841.091 20.928L840.963 19.968L840.899 20.928L834.691 37.184H847.235ZM868.989 12.096H901.565V56H896.317V16.96H874.237V56H868.989V12.096ZM915.333 11.456C917.04 11.456 918.555 12.096 919.877 13.376C921.2 14.6133 921.861 16.1493 921.861 17.984L921.733 45.76L921.029 47.424L949.253 12.16H951.685V56.064H946.309L946.501 23.552L946.757 22.592L927.109 48.128L920.005 56.128H916.549V17.984C916.549 17.5573 916.4 17.1947 916.101 16.896C915.803 16.5547 915.419 16.384 914.949 16.384C914.267 16.384 913.712 16.768 913.285 17.536L909.509 14.976C910.107 13.9093 910.917 13.056 911.941 12.416C913.008 11.776 914.139 11.456 915.333 11.456ZM966.418 16.96C965.949 16.96 965.565 17.1093 965.266 17.408C965.01 17.664 964.882 18.0053 964.882 18.432C964.882 18.56 964.925 18.7947 965.01 19.136H960.018C959.933 18.1973 960.04 17.28 960.338 16.384C960.637 15.4453 961.128 14.6347 961.81 13.952C962.408 13.3547 963.09 12.9067 963.858 12.608C964.626 12.2667 965.416 12.096 966.226 12.096H995.026V16.96H980.562V56.064H975.314V16.96H966.418ZM998.717 56.576C997.053 56.576 995.709 56.1707 994.685 55.36C993.661 54.5067 993 53.4187 992.701 52.096L996.477 50.048C996.605 50.6027 996.819 51.0507 997.117 51.392C997.459 51.6907 997.843 51.84 998.269 51.84C998.696 51.84 999.059 51.6907 999.357 51.392C999.656 51.0507 999.933 50.5813 1000.19 49.984L1016.19 11.968H1018.37L1037.12 56.064H1031.55L1025.66 41.92H1009.02L1004.48 52.8C1004.01 53.952 1003.22 54.8693 1002.11 55.552C1001 56.2347 999.869 56.576 998.717 56.576ZM1023.49 37.184L1017.34 20.928L1017.21 19.968L1017.15 20.928L1010.94 37.184H1023.49ZM1044.85 18.432C1044.85 17.792 1044.66 17.2373 1044.28 16.768C1043.94 16.256 1043.4 16 1042.68 16C1041.57 16.0427 1040.84 16.4267 1040.5 17.152L1036.92 14.592C1037.34 13.696 1038.05 12.9067 1039.03 12.224C1040.05 11.5413 1041.35 11.2 1042.93 11.2C1045.15 11.2 1046.88 11.8613 1048.12 13.184C1049.4 14.5067 1050.06 16.2347 1050.1 18.368V30.72H1071.54V12.096H1076.79V56.064H1071.54V35.584H1050.1V56.064H1044.85V18.432Z"
       fill="white"
       id="path32" />
    <path
       d="M600.935 686.768C599.527 686.768 598.247 686.32 597.095 685.424C595.943 684.528 595.196 683.461 594.855 682.224L599.335 680.368C599.676 681.008 599.932 681.413 600.103 681.584C600.273 681.755 600.551 681.84 600.935 681.84C601.233 681.84 601.447 681.776 601.575 681.648C601.745 681.52 601.895 681.307 602.023 681.008L610.279 642.096H615.079L627.367 675.76L628.199 678.704L629.031 675.76L641.447 642.096H646.311L655.335 686.064H650.087L643.175 651.632L643.111 650.608L642.919 651.632L630.503 686.064H625.895L613.671 652.016L613.479 650.608L613.287 652.016L607.015 681.776C606.716 683.141 605.991 684.315 604.839 685.296C603.687 686.277 602.385 686.768 600.935 686.768ZM664.686 686.576C663.022 686.576 661.678 686.171 660.654 685.36C659.63 684.507 658.969 683.419 658.67 682.096L662.446 680.048C662.574 680.603 662.787 681.051 663.086 681.392C663.427 681.691 663.811 681.84 664.238 681.84C664.665 681.84 665.027 681.691 665.326 681.392C665.625 681.051 665.902 680.581 666.158 679.984L682.158 641.968H684.334L703.086 686.064H697.518L691.63 671.92H674.99L670.446 682.8C669.977 683.952 669.187 684.869 668.078 685.552C666.969 686.235 665.838 686.576 664.686 686.576ZM689.454 667.184L683.31 650.928L683.182 649.968L683.118 650.928L676.91 667.184H689.454ZM712.552 641.456C714.259 641.456 715.773 642.096 717.096 643.376C718.419 644.613 719.08 646.149 719.08 647.984L718.952 675.76L718.248 677.424L746.472 642.16H748.904V686.064H743.528L743.72 653.552L743.976 652.592L724.328 678.128L717.224 686.128H713.768V647.984C713.768 647.557 713.619 647.195 713.32 646.896C713.021 646.555 712.637 646.384 712.168 646.384C711.485 646.384 710.931 646.768 710.504 647.536L706.728 644.976C707.325 643.909 708.136 643.056 709.16 642.416C710.227 641.776 711.357 641.456 712.552 641.456ZM730.536 638.64C727.421 638.64 725.011 637.723 723.304 635.888C721.64 634.011 720.851 631.6 720.936 628.656H726.056C726.056 630.363 726.419 631.728 727.144 632.752C727.869 633.733 729.021 634.224 730.6 634.224C733.587 634.224 735.016 632.368 734.888 628.656H740.072C740.115 631.813 739.283 634.267 737.576 636.016C735.869 637.765 733.523 638.64 730.536 638.64ZM780.789 687.408C776.565 687.365 772.768 686.384 769.397 684.464C766.069 682.501 763.445 679.856 761.525 676.528C759.648 673.157 758.709 669.36 758.709 665.136V663.28C758.709 659.227 759.669 655.515 761.589 652.144C763.552 648.731 766.197 646.043 769.525 644.08C772.896 642.075 776.565 641.072 780.533 641.072C784.544 641.072 788.213 642.075 791.541 644.08C794.869 646.043 797.514 648.731 799.477 652.144C801.44 655.515 802.421 659.227 802.421 663.28V665.136C802.421 669.36 801.461 673.179 799.541 676.592C797.664 680.005 795.082 682.672 791.797 684.592C788.512 686.512 784.842 687.451 780.789 687.408ZM780.597 682.544C783.712 682.544 786.528 681.797 789.045 680.304C791.562 678.768 793.546 676.677 794.997 674.032C796.448 671.387 797.173 668.421 797.173 665.136V663.28C797.173 660.165 796.426 657.285 794.933 654.64C793.44 651.952 791.413 649.84 788.853 648.304C786.336 646.725 783.541 645.936 780.469 645.936C777.44 645.936 774.666 646.725 772.149 648.304C769.632 649.84 767.626 651.952 766.133 654.64C764.682 657.285 763.957 660.165 763.957 663.28V665.136C763.957 668.421 764.682 671.387 766.133 674.032C767.584 676.677 769.568 678.768 772.085 680.304C774.645 681.797 777.482 682.544 780.597 682.544ZM815.047 647.088C813.937 647.088 813.169 647.28 812.743 647.664C812.273 648.048 811.996 648.752 811.911 649.776L807.111 649.712C807.111 647.152 807.9 645.189 809.479 643.824C810.759 642.672 812.636 642.096 815.111 642.096H829.255C831.857 642.096 834.119 642.715 836.039 643.952C837.959 645.147 839.431 646.811 840.455 648.944C841.479 651.035 841.991 653.381 841.991 655.984C841.991 660.635 840.647 664.155 837.958 666.544C835.271 668.891 831.751 670.064 827.399 670.064C825.905 670.064 824.305 669.851 822.599 669.424V664.752C824.391 665.051 825.905 665.2 827.143 665.2C833.543 665.2 836.743 662.149 836.743 656.048C836.743 653.019 835.996 650.757 834.503 649.264C833.009 647.728 830.961 646.96 828.359 646.96H820.295V686.064H815.047V647.088Z"
       fill="white"
       id="path34" />
  </g>
  <path
     d="M562 541L367 428.417L367 653.583L562 541Z"
     fill="#D96CFF"
     id="path38" />
  <path
     d="M306 541L111 428.417L111 653.583L306 541Z"
     fill="#D96CFF"
     id="path40" />
  <path
     d="M1602 191L1407 78.4167V303.583L1602 191Z"
     fill="#D96CFF"
     id="path42" />
  <path
     d="M1346.34 191L1151.34 78.4167V303.583L1346.34 191Z"
     fill="#D96CFF"
     id="path44" />
  <defs
     id="defs49">
    <clipPath
       id="clip0_143_2">
      <rect
         width="1810"
         height="705"
         fill="white"
         id="rect46" />
    </clipPath>
    <clipPath
       clipPathUnits="userSpaceOnUse"
       id="clipPath283">
      <path
         d="M 0,0 H 700 L 928,328 H 0 Z"
         fill="#1e0334"
         id="path285" />
    </clipPath>
    <clipPath
       clipPathUnits="userSpaceOnUse"
       id="clipPath288">
      <path
         d="m 882,377 h 700 l 228,328 H 882 Z"
         fill="#1e0334"
         id="path290" />
    </clipPath>
  </defs>
</svg>
