<?xml version="1.0" encoding="UTF-8" standalone="no"?>
<svg
   width="1528"
   height="1528"
   viewBox="0 0 1528 1528"
   fill="none"
   version="1.1"
   id="svg6069"
   sodipodi:docname="телефон.svg"
   inkscape:version="1.2 (dc2aedaf03, 2022-05-15)"
   xmlns:inkscape="http://www.inkscape.org/namespaces/inkscape"
   xmlns:sodipodi="http://sodipodi.sourceforge.net/DTD/sodipodi-0.dtd"
   xmlns="http://www.w3.org/2000/svg"
   xmlns:svg="http://www.w3.org/2000/svg">
  <sodipodi:namedview
     id="namedview6071"
     pagecolor="#505050"
     bordercolor="#ffffff"
     borderopacity="1"
     inkscape:showpageshadow="0"
     inkscape:pageopacity="0"
     inkscape:pagecheckerboard="1"
     inkscape:deskcolor="#505050"
     showgrid="false"
     inkscape:zoom="0.34358639"
     inkscape:cx="659.22286"
     inkscape:cy="764"
     inkscape:window-width="1680"
     inkscape:window-height="1028"
     inkscape:window-x="1358"
     inkscape:window-y="-8"
     inkscape:window-maximized="1"
     inkscape:current-layer="svg6069" />
  <g
     clip-path="url(#clip0_38_208)"
     id="g6062">
    <path
       d="M515.608 343.264C519.34 347.113 523.29 351.548 526.542 355.994C529.308 359.775 532.087 364.251 533.5 368.824C534.89 373.32 535.638 380.6 529.933 386.231L448.157 466.936L448.138 466.955L448.118 466.974L381.769 531.742L381.621 531.887L381.467 532.025C375.33 537.538 367.808 536.225 363.385 534.66C358.716 533.008 354.138 530.018 350.315 527.135C346.393 524.177 342.546 520.766 339.317 517.742C293.63 564.969 285.647 581.685 283.923 594.523C282.376 606.187 285.713 623.8 292.241 636.224L292.277 636.292L292.312 636.361C292.641 637.012 294.231 639.427 301.818 647.678C309.082 655.577 321.139 668.108 341.297 688.63C381.579 729.638 453.853 802.188 583.965 932.58L583.97 932.585C663.359 1012.25 736.608 1085.5 790.675 1139.36C817.711 1166.29 839.943 1188.37 855.747 1203.98C863.651 1211.78 869.934 1217.95 874.402 1222.3C876.638 1224.48 878.4 1226.18 879.675 1227.39C880.636 1228.31 881.163 1228.79 881.381 1228.99C881.493 1229.09 881.524 1229.12 881.49 1229.09L881.505 1229.11L881.52 1229.12C900.108 1243.99 923.683 1248.84 943.145 1242.73L943.165 1242.72L943.185 1242.72L952.486 1239.84L1096.49 1095.84L1240.51 951.817L1243.51 942.363C1243.51 942.358 1243.51 942.354 1243.51 942.349C1249.49 923.308 1245.37 901.691 1230.75 881.797L1230.73 881.772L1230.71 881.746C1230.72 881.751 1230.72 881.75 1230.71 881.744C1230.69 881.717 1230.59 881.582 1230.36 881.307C1230.09 880.993 1229.73 880.578 1229.26 880.051C1228.33 878.996 1227.04 877.597 1225.38 875.827C1222.07 872.291 1217.39 867.412 1211.26 861.102C1199 848.489 1181.06 830.284 1156.88 805.93C1108.52 757.228 1035.32 684.027 933.008 581.994C933.008 581.994 933.008 581.994 933.008 581.993L643.889 293.71L632.876 288.502C632.866 288.498 632.857 288.493 632.848 288.489C617.932 281.556 596.658 280.517 583.037 285.606C583.027 285.61 583.016 285.614 583.006 285.618L572.801 289.516C572.654 289.651 572.497 289.796 572.329 289.95C571.116 291.066 569.356 292.687 567.171 294.704C562.801 298.74 556.731 304.362 549.936 310.704C538.978 320.933 526.193 332.979 515.608 343.264ZM371.23 504.587C371.25 505.136 371.508 505.849 372.11 506.452L374.289 504.273C373.686 503.671 372.972 503.413 372.423 503.394C371.907 503.375 371.634 503.555 371.513 503.676C371.392 503.797 371.212 504.07 371.23 504.587ZM372.111 506.453C372.714 507.055 373.427 507.313 373.976 507.333C374.493 507.351 374.766 507.171 374.887 507.05C375.008 506.929 375.188 506.656 375.169 506.14C375.15 505.591 374.892 504.877 374.289 504.274L372.111 506.453ZM1273.66 969.413L1273.65 969.422L1273.65 969.431C1270.07 976.732 1266.52 981.812 1247.74 1001.41C1228.88 1021.09 1193.8 1056.24 1126.18 1123.87C1065.26 1184.78 1029.93 1219.96 1008.65 1240.54C987.897 1260.6 979.634 1267.71 973.447 1271.06C943.547 1287.61 904.618 1285.73 872.572 1267.56C865.507 1263.57 859.619 1258.94 834.033 1234.04C808.178 1208.88 761.489 1162.26 672.446 1073.22L486.56 887.334L486.555 887.329L292.2 693.25C292.191 693.242 292.183 693.233 292.174 693.225C273.937 675.268 267.9 668.162 261.498 656.749L261.491 656.737L261.484 656.725C241.071 620.088 241.265 575.135 263.961 543.993C265.47 541.911 269.817 537.171 275.481 531.159C281.453 524.819 289.577 516.354 299.26 506.379C318.633 486.423 344.329 460.341 371.703 432.966L371.747 432.923L371.791 432.879L548.867 260.147L549.453 259.575L550.125 259.106C556.69 254.523 566.217 250.91 575.579 248.521C585.054 246.103 595.547 244.639 604.512 245.043C623.39 245.769 637.961 249.859 654.777 258.868L654.812 258.887L654.848 258.906C662.469 263.069 666.934 266.25 705.549 304.247C744.586 342.659 819.254 417.466 967.851 566.343L967.854 566.347L1266.36 865.686L1267.8 867.131L1268.56 869.025L1274.49 883.829C1286.09 912.324 1285.97 944.147 1273.66 969.413Z"
       fill="black"
       stroke="black"
       stroke-width="20"
       stroke-linecap="round"
       id="path6058" />
    <path
       d="M917.777 316.708L917.777 335.649L917.777 335.658L917.777 335.667C917.737 341.217 917.597 345.735 917.276 349.371C916.958 352.981 916.451 355.883 915.602 358.125C914.735 360.419 913.437 362.205 911.461 363.264C909.562 364.282 907.4 364.426 905.222 364.252C904.786 364.222 904.336 364.112 903.985 364.015C903.581 363.904 903.115 363.753 902.605 363.575C901.581 363.217 900.276 362.71 898.74 362.081C895.662 360.82 891.559 359.024 886.729 356.828C877.064 352.436 864.42 346.414 851.106 339.799C837.882 333.27 825.527 327.054 816.294 322.287C811.68 319.905 807.833 317.878 805.043 316.353C803.651 315.591 802.504 314.944 801.65 314.436C801.224 314.182 800.851 313.951 800.548 313.749C800.319 313.596 799.99 313.369 799.715 313.107C797.575 311.169 796.595 308.186 796.479 305.475C796.362 302.752 797.091 299.657 799.18 297.568C799.479 297.269 799.881 297.014 800.084 296.886C800.373 296.703 800.738 296.487 801.161 296.245C802.011 295.758 803.176 295.119 804.608 294.353C807.476 292.818 811.477 290.736 816.308 288.256C825.973 283.295 838.999 276.723 853.012 269.715L853.018 269.711L853.025 269.708C854.389 269.036 855.723 268.379 857.028 267.736C870.548 261.076 880.923 255.965 888.848 252.453C893.197 250.526 896.87 249.053 899.964 248.063C903.032 247.081 905.686 246.521 907.952 246.539C910.284 246.558 912.349 247.196 913.958 248.728C915.501 250.198 916.332 252.218 916.827 254.401C917.717 258.327 917.74 263.937 917.769 270.796C917.772 271.377 917.774 271.967 917.777 272.566C917.777 272.568 917.777 272.57 917.777 272.572L917.913 290.555L935.271 292.389C935.274 292.389 935.277 292.389 935.279 292.39C1003.14 299.292 1063.79 324.977 1117.5 369.059L1117.5 369.061C1186.51 425.869 1230.14 510.575 1236.88 601.372C1237.68 611.923 1237.48 619.861 1235.96 625.325C1235.19 628.086 1234.04 630.401 1232.34 632.091C1230.6 633.829 1228.44 634.747 1225.99 634.95L1225.99 634.951C1223.69 635.133 1221.41 634.877 1219.39 633.53C1217.4 632.204 1216.03 630.069 1214.99 627.302C1212.95 621.879 1211.75 612.756 1210.56 598.279C1203.61 523.048 1173.58 457.996 1122.11 406.521C1070.48 354.889 1003.84 324.551 926.521 317.436C926.518 317.435 926.514 317.435 926.511 317.435L917.777 316.708ZM867.051 290.741L867.041 290.746L867.031 290.751C862.632 292.949 858.391 295.076 854.534 297.01C851.677 298.443 849.03 299.771 846.685 300.944C842.888 302.843 839.818 304.371 838.005 305.239C838.216 305.353 838.441 305.474 838.68 305.601C840.412 306.524 842.787 307.755 845.597 309.189C851.216 312.056 858.536 315.718 865.845 319.328C873.155 322.938 880.444 326.49 886.001 329.138C888.781 330.463 891.116 331.556 892.798 332.315C892.82 332.325 892.842 332.335 892.864 332.345C892.981 330.939 893.086 329.067 893.175 326.807C893.392 321.299 893.51 313.653 893.51 305.231C893.51 296.809 893.392 289.166 893.155 283.644C893.055 281.315 892.936 279.398 892.8 277.972C891.288 278.675 889.212 279.67 886.713 280.891C881.513 283.43 874.52 286.924 867.051 290.741Z"
       fill="black"
       stroke="black"
       stroke-width="5"
       id="path6060" />
    <path
       d="m 608.10914,1210.8997 v -18.941 -0.01 -0.01 c 0.04,-5.55 0.18,-10.068 0.501,-13.704 0.318,-3.61 0.825,-6.512 1.674,-8.754 0.867,-2.294 2.165,-4.08 4.141,-5.139 1.899,-1.018 4.061,-1.162 6.239,-0.988 0.436,0.03 0.886,0.14 1.237,0.237 0.404,0.111 0.87,0.262 1.38,0.44 1.024,0.358 2.329,0.865 3.865,1.494 3.078,1.261 7.181,3.057 12.011,5.253 9.665,4.392 22.309,10.414 35.62299,17.029 13.224,6.529 25.579,12.745 34.812,17.512 4.614,2.382 8.461,4.409 11.251,5.934 1.392,0.762 2.539,1.409 3.393,1.917 0.426,0.254 0.799,0.485 1.102,0.687 0.229,0.153 0.558,0.38 0.833,0.642 2.14,1.938 3.12,4.921 3.236,7.632 0.117,2.723 -0.612,5.818 -2.701,7.907 -0.299,0.299 -0.701,0.554 -0.904,0.682 -0.289,0.183 -0.654,0.399 -1.077,0.641 -0.85,0.487 -2.015,1.126 -3.447,1.892 -2.868,1.535 -6.869,3.617 -11.7,6.097 -9.665,4.961 -22.691,11.533 -36.70399,18.541 h -0.006 -0.007 c -1.364,0.672 -2.698,1.329 -4.003,1.972 -13.52,6.66 -23.895,11.771 -31.82,15.283 -4.349,1.927 -8.022,3.4 -11.116,4.39 -3.068,0.982 -5.722,1.542 -7.988,1.524 -2.332,-0.019 -4.397,-0.657 -6.006,-2.189 -1.543,-1.47 -2.374,-3.49 -2.869,-5.673 -0.89,-3.926 -0.913,-9.536 -0.942,-16.395 -0.003,-0.581 -0.005,-1.171 -0.008,-1.77 0,0 0,0 0,-0.01 l -0.136,-17.983 -17.358,-1.834 c -0.003,0 -0.006,0 -0.008,-10e-4 -67.861,-6.902 -128.511,-32.587 -182.221,-76.669 v -0 c -69.01,-56.808 -112.64,-141.514 -119.38,-232.31102 -0.8,-10.55096 -0.6,-18.48896 0.92,-23.95296 0.77,-2.761 1.92,-5.076 3.62,-6.766 1.74,-1.738 3.9,-2.656 6.35,-2.859 v -10e-4 c 2.3,-0.182 4.58,0.074 6.6,1.421 1.99,1.326 3.36,3.461 4.4,6.228 2.04,5.423 3.24,14.546 4.43,29.02296 6.95,75.23102 36.98,140.28302 88.45,191.75802 51.63,51.632 118.27,81.97 195.589,89.085 0.003,0 0.007,0 0.01,0 z m 50.726,25.967 0.01,-0.01 0.01,-0 c 4.399,-2.198 8.64,-4.325 12.497,-6.259 2.857,-1.433 5.50399,-2.761 7.84899,-3.934 3.797,-1.899 6.867,-3.427 8.68,-4.295 -0.211,-0.114 -0.436,-0.235 -0.675,-0.362 -1.732,-0.923 -4.107,-2.154 -6.917,-3.588 -5.61899,-2.867 -12.93899,-6.529 -20.24799,-10.139 -7.31,-3.61 -14.599,-7.162 -20.156,-9.81 -2.78,-1.325 -5.115,-2.418 -6.797,-3.177 -0.022,-0.01 -0.044,-0.02 -0.066,-0.03 -0.117,1.406 -0.222,3.278 -0.311,5.538 -0.217,5.508 -0.335,13.154 -0.335,21.576 0,8.422 0.118,16.065 0.355,21.587 0.1,2.329 0.219,4.246 0.355,5.672 1.512,-0.703 3.588,-1.698 6.087,-2.919 5.2,-2.539 12.193,-6.033 19.662,-9.85 z"
       fill="#000000"
       stroke="#000000"
       stroke-width="5"
       id="path6190" />
  </g>
  <defs
     id="defs6067">
    <clipPath
       id="clip0_38_208">
      <rect
         width="1080"
         height="1080"
         fill="white"
         transform="translate(0 763.675) rotate(-45)"
         id="rect6064" />
    </clipPath>
  </defs>
</svg>
