<?xml version="1.0" encoding="UTF-8" standalone="no"?>
<svg
   width="770"
   height="669"
   viewBox="0 0 770 669"
   fill="none"
   version="1.1"
   id="svg1188"
   sodipodi:docname="телек с джойстиком и выстрелом.svg"
   inkscape:export-filename="..\телек с выстрелом и джойстиком.svg"
   inkscape:export-xdpi="300"
   inkscape:export-ydpi="300"
   xml:space="preserve"
   inkscape:version="1.2 (dc2aedaf03, 2022-05-15)"
   xmlns:inkscape="http://www.inkscape.org/namespaces/inkscape"
   xmlns:sodipodi="http://sodipodi.sourceforge.net/DTD/sodipodi-0.dtd"
   xmlns="http://www.w3.org/2000/svg"
   xmlns:svg="http://www.w3.org/2000/svg"><sodipodi:namedview
     id="namedview1190"
     pagecolor="#505050"
     bordercolor="#ffffff"
     borderopacity="1"
     inkscape:showpageshadow="0"
     inkscape:pageopacity="0"
     inkscape:pagecheckerboard="1"
     inkscape:deskcolor="#505050"
     showgrid="false"
     inkscape:zoom="0.78475336"
     inkscape:cx="312.2"
     inkscape:cy="148.45429"
     inkscape:window-width="1680"
     inkscape:window-height="1028"
     inkscape:window-x="1358"
     inkscape:window-y="-8"
     inkscape:window-maximized="1"
     inkscape:current-layer="g1138" /><g
     clip-path="url(#clip0_55_59)"
     id="g1138"><path
       d="M 570,0 H 60 C 48.0653,0 36.6193,4.74106 28.1802,13.1802 19.7411,21.6193 15,33.0653 15,45 v 300 c 0,11.935 4.7411,23.381 13.1802,31.82 C 36.6193,385.259 48.0653,390 60,390 h 225 v 30 H 120 c -3.978,0 -7.794,1.58 -10.607,4.393 C 106.58,427.206 105,431.022 105,435 v 30 c 0,3.978 1.58,7.794 4.393,10.607 2.813,2.813 6.629,4.393 10.607,4.393 h 390 c 3.978,0 7.794,-1.58 10.607,-4.393 C 523.42,472.794 525,468.978 525,465 v -30 c 0,-3.978 -1.58,-7.794 -4.393,-10.607 C 517.794,421.58 513.978,420 510,420 H 345 v -30 h 225 c 11.935,0 23.381,-4.741 31.82,-13.18 C 610.259,368.381 615,356.935 615,345 V 45 C 615,33.0653 610.259,21.6193 601.82,13.1802 593.381,4.74106 581.935,0 570,0 Z M 555,330 H 75 V 60 h 480 z"
       fill="#1e0334"
       id="path1136"
       style="display:inline"
       inkscape:export-filename="..\ТЕЛЕВИЗОР с лого фиолетовый.svg"
       inkscape:export-xdpi="300"
       inkscape:export-ydpi="300" /><g
       inkscape:label="Слой 1"
       id="layer1"
       transform="matrix(0.20924429,0,0,0.20924429,-259.552,-309.47738)" /><g
       id="g5165"
       style="display:inline"
       inkscape:label="4"
       transform="matrix(0.20924429,0,0,0.20924429,105.49873,81.295636)"><path
         id="path5199"
         style="display:inline;opacity:1;fill:#ffffff;fill-opacity:1;stroke:none;stroke-width:4.26118;stroke-linecap:round;stroke-linejoin:bevel;stroke-dasharray:none;stroke-opacity:1;paint-order:fill markers stroke"
         d="m 1555.0176,156.98633 c -15.9422,15.38045 -27.4451,27.76466 -43.9805,44.97461 -12.9042,-11.25725 -22.5856,-22.24016 -36.3555,-37.16211 l -7.8144,50.14258 c -7.0729,3.42271 -21.1964,3.10801 -34.625,5.99218 1.9996,2.48161 8.5094,10.71127 19.3242,21.53125 -1.0546,2.33936 -2.2186,4.70641 -3.4394,7.08008 -12.432,3.60788 -21.8747,7.72101 -30.3868,13.66797 -0.3943,0.27549 -0.8186,0.50143 -1.209,0.78516 -4.3445,9.77234 -3.6258,14.128 -19.25,18.61328 -55.2693,15.86619 -124.3713,36.99517 -190.3964,57.54101 -10.7927,3.35848 -20.6002,6.44494 -30.9707,9.70313 -21.0714,6.62018 -44.847,13.90694 -62.9278,19.7168 -5.9728,1.97771 -20.2537,4.38909 -29.5468,6.42773 -3.0978,0.67954 -5.642,1.31804 -7.1387,1.88477 -5.6796,2.15052 8.1904,-3.84292 10.3379,-4.4961 l 10.8125,-3.88476 -3.6446,-2.10547 c 2.4159,1.3969 -4.9066,-2.20012 -13.373,-3.22656 -3.1531,-0.24274 -5.8402,-0.22905 -8.3574,-0.0996 -0.9385,0.0447 -1.8648,0.13823 -2.7403,0.23046 -1.4551,0.16096 -2.8647,0.39353 -4.1972,0.67969 -2.6091,0.54873 -5.1664,1.30267 -7.6719,2.29492 -0.034,0.0135 -0.068,0.0216 -0.1016,0.0352 -2.8439,1.13185 -5.7691,2.44117 -9.1504,4.07227 1.5529,-2.24945 4.0547,-3.98564 6.8106,-5.45899 5e-4,2.8e-4 0,-2.7e-4 0,0 6.3987,-3.42054 14.0254,-4.92806 17.5567,-5.77344 0.4959,-0.11434 1.3002,-0.31575 1.5996,-0.40429 0.1781,-0.06 0.2721,-0.13706 0.3418,-0.1875 0.2857,-0.18833 0.029,-0.33721 -1.6875,-0.45508 -2.8576,-0.19598 -13.7682,-1.39272 -24.2461,-2.66016 -5.9111,-0.71499 -8.7087,-0.89295 -13.5918,-1.45312 v 0.004 c -10.8732,-1.20947 -21.4833,-2.29288 -30,-2.95507 v -0.25391 c -6.48523,-0.53579 -14.62325,-0.78841 -21.56055,-1.15625 -1.07845,-0.0544 -2.0783,-0.15449 -3.17968,-0.20703 -0.0157,0.0121 -0.0351,0.023 -0.0508,0.0351 -6.02775,-0.29691 -10.69354,-0.72095 -18.21093,-0.97656 -21.10154,-0.71761 -35.16174,-1.375 -46.99805,-1.39648 v 29.39648 l -10.14648,3.46875 c -37.46457,12.80969 -68.65071,38.39104 -88.75782,71.59375 30.87236,-9.03082 60.11528,-17.59988 96.83203,-28.15234 l 80.13868,6.42773 c 44.0749,3.53425 80.7761,6.95839 81.5606,7.60938 0.7844,0.65105 2.0559,2.69982 2.8242,4.55469 1.1395,2.75093 2.281,3.49728 6.1875,4.04492 1.9871,0.27857 12.4888,1.33337 18.1172,1.99414 11.3064,1.32738 19.1601,2.1009 36.3945,4.00586 29.5917,3.27084 62.3043,7.0629 62.4902,6.87695 0.2196,-0.21951 -1.4514,-2.94332 -3.7129,-6.05469 -2.2613,-3.11129 -11.6875,-17.08822 -20.9472,-31.05859 -9.2599,-13.97045 -17.8041,-26.771 -18.9864,-28.44531 l -2.1503,-3.04297 -8.3829,2.70703 c -4.6118,1.48969 -14.3612,4.62352 -21.664,6.96484 -5.3512,1.71569 -12.528,3.51954 -18.5586,5.12696 -2.1993,0.58619 -5.5728,1.49835 -6.7676,1.87109 0.802,10.76433 -5.2716,17.14666 -13.2676,20.76172 -6.7342,3.04518 -14.8121,4.15611 -21.4902,3.97265 -11.2674,-2.18232 -23.5808,-7.52203 -27.582,-16.80859 -3.9038,-9.00579 -4.7438,-18.01202 -3,-24.5957 0.1743,-0.80728 0.3893,-1.40404 0.5566,-2.14844 0.8875,-3.94858 1.809,-7.25326 4.8125,-10.23828 -1.2215,3.92058 -1.5638,8.05602 -1.7109,11.93945 -0.046,1.22085 -0.1602,2.52233 -0.1641,3.64844 0,10.81015 3.881,19.56693 11.7402,26.48437 1.6226,1.3041 3.4965,2.29551 5.4688,3.12891 0.3621,0.15447 0.7009,0.32537 1.0722,0.46484 0.7374,0.27385 1.5382,0.38496 2.3067,0.59961 1.9685,0.56133 3.9602,0.98939 6.0586,1.1836 0.5975,0.0512 1.177,0.0481 1.7793,0.0703 2.4039,0.1077 4.7694,0.004 7.1484,-0.32617 0.2846,-0.0414 0.555,-0.0796 0.8379,-0.12695 2.7566,-0.44311 5.3682,-1.14225 7.8262,-2.13086 0,-0.002 0.01,-0.002 0.014,-0.004 7.3533,-2.96122 12.8998,-8.11635 12.9804,-15.10156 -1.3145,-0.92076 -2.3887,-2.40291 -2.3886,-3.29493 3.4272,-1.02094 6.8999,-2.11344 10.3339,-3.14257 0,-10e-4 0.01,-0.003 0.012,-0.004 30.6361,-9.18138 61.3884,-18.62302 92.1289,-28.18555 10.0569,-3.12843 20.0552,-6.252 30.0683,-9.38671 32.8558,-10.28588 63.8833,-19.88051 95.6426,-29.8418 9.8486,-3.089 19.5555,-6.10118 29.2383,-9.1211 20.2999,-6.33121 41.9216,-13.2135 61.2988,-19.11914 6.0263,-1.24434 13.2742,-1.17891 19.1231,0.46094 2.0873,0.58531 3.9667,0.91474 5.8593,1.07422 1.6531,0.17756 3.7999,0.14409 5.7813,0.0352 1.295,-0.0712 2.2955,-0.003 3.9199,-0.18555 8.9453,-2.01597 16.704,-6.01327 24.1621,-10.90625 0.2524,-0.16556 0.5257,-0.27957 0.7774,-0.44727 0.01,0.70607 0.062,1.622 0.074,2.33008 2e-4,5.4e-4 -3e-4,10e-4 0,0.002 0.1701,10.24672 0.782,20.57475 1.082,33.71876 3.239,-3.07372 6.4778,-6.14722 9.7168,-9.22071 8.6262,-8.18548 17.2525,-16.37051 25.8789,-24.55664 11.474,15.15129 20.3163,29.14318 32.5527,47.05469 -2.9199,-18.7512 -5.4074,-37.11503 -8.4609,-53.91211 26.9396,2.65488 47.1923,4.30787 76.5176,7.35547 -23.5049,-17.33804 -41.1516,-30.61965 -65.9668,-49.23242 9.5861,-4.55249 18.1761,-8.28945 27.0351,-12.13868 8.8595,-3.84946 17.9897,-7.81198 28.6543,-12.8164 -13.0996,-1.92624 -24.3724,-1.68981 -36.9648,-2.72461 -4.1972,-0.34488 -8.5398,-0.83179 -13.1465,-1.58594 2.6106,-22.31471 4.8182,-38.38315 7.2305,-63.9707 z m -15.0957,35.32422 -14.6114,40.07812 28.9688,0.95313 -33.8672,17.07226 32.5762,25.72461 -31.8965,-7.21875 -1.4395,22.07813 -13.0468,-17.09571 -22.9356,31.29688 -1.8008,-29.19141 -21.6211,1.60157 -17.5449,1.29882 11.7715,-11.91211 18.7207,-18.9414 -16.3125,-19.25781 25.2559,0.12304 2.3906,-26.76953 22.7187,23.18945 z m -47.3047,33.05664 v 15.21875 l -15.9453,-0.72461 11.1133,10.63086 -30.295,21.90429 -1.1113,0.80274 1.3711,-0.33789 31.9668,-7.875 -1.4492,23.1914 15.2207,-27.05664 13.2851,15.70313 -8.455,-23.4336 13.8574,8.65821 -11.1992,-17.11328 0.9668,-1.20899 9.1796,-18.35937 -19.8105,14.97851 z M 885,350.16406 c -1.31212,0.18502 -2.4536,0.23443 -3.82227,0.45117 -2.26542,0.35856 -10.61213,2.61263 -18.64062,6.02539 -12.20766,5.18926 -16.44837,7.71057 -25.9082,15.39649 -31.29635,23.94272 -47.92441,61.97177 -66.3418,92.68359 -0.0697,0.11724 -0.0792,0.16486 -0.14649,0.2793 h 3.11329 c 1.22307,-0.36855 2.28649,-0.65403 3.49609,-1.01758 20.14905,-48.91918 59.15151,-87.75655 108.25,-107.61719 z m 200.6602,10.13672 c -0.1281,0.004 -0.2058,0.0168 -0.2227,0.0332 -0.4495,0.44943 9.723,3.25109 17.2656,7.49805 1.8208,1.02526 4.9499,-0.71427 7.2793,-1.44141 2.3293,-0.72706 4.5361,-1.62291 4.9024,-1.99023 0.3662,-0.36677 -3.5417,-1.31086 -8.6817,-2.09766 -4.8189,-0.73763 -18.6167,-2.05797 -20.5429,-2 z m -172.39067,71.58203 c -45.99508,8.56202 -61.01854,13.45777 -98.46875,23.01953 -5.52326,9.46092 -10.32849,19.40617 -13.94336,29.95899 L 797.38281,495 H 697.05273 c -25.2367,7.45768 -51.80211,15.33588 -53.63867,16.23242 0.0219,0.0553 0.0438,0.1244 0.0684,0.17969 -18.97324,5.15246 -35.47543,9.77924 -54.02539,16.29297 -2.17974,0.7654 -4.11503,1.27321 -6.36719,2.10351 -12.31749,10.82476 -18.47911,23.01783 -27.15234,38.57618 -4.06366,13.50457 -0.88104,33.56838 0.61719,48.63671 0.0478,-10e-4 0.0754,-0.003 0.12304,-0.004 1.2e-4,10e-4 -1.1e-4,0.003 0,0.004 34.68443,-0.94017 62.00446,-2.28907 94.00977,-3.80859 -0.81319,-3.4154 -1.77865,-6.77234 -2.48047,-10.22851 L 644.55469,585 h 152.82812 l 3.47461,10.13867 c 1.51134,4.41204 3.39561,8.63264 5.25196,12.86524 l 86.58398,-2.48633 127.18754,-3.65235 85.0156,0.58594 0.8652,-40.18164 c 0.8648,-40.15597 0.8633,-40.18521 -1.7031,-44.80078 -1.4124,-2.54003 -9.5631,-19.42531 -18.1152,-37.52344 -8.5518,-18.09753 -15.9735,-33.33463 -16.4903,-33.85742 -1.1329,-1.1458 -116.50982,-11.75325 -156.18357,-14.20508 z m 171.69137,24.25391 c -0.1598,0.003 -0.2517,0.0113 -0.2714,0.0332 -1.1486,1.14865 23.4416,51.60562 27.498,56.35742 5.6632,17.0066 0.649,76.36006 1.4141,86.36328 1.3605,0.0303 2.6133,0.0482 3.9765,0.0781 52.9315,1.16293 103.6284,2.09038 154.4082,3.06445 23.7741,0.45605 50.9026,0.90917 72.291,1.43555 1.2934,-21.94622 1.6493,-42.74334 3.3575,-71.11914 -13.6035,-23.40329 -27.5184,-47.08184 -43.0586,-68.88086 -7.4856,1.84651 -16.8075,5.03289 -26.6543,7.44531 -2.5851,-0.13957 -5.1248,-0.30342 -7.7168,-0.44336 -30.6351,-1.65387 -61.3666,-3.38005 -90.1016,-5.4707 -0.028,-0.002 -0.052,-0.004 -0.08,-0.006 -13.2162,-0.96221 -25.7892,-2.03237 -37.7851,-3.19726 0,-1.9e-4 0,1.8e-4 -0.01,0 -5.2763,-0.51239 -10.9028,-0.96802 -15.8711,-1.5293 -9.8644,-1.12086 -12.0861,-1.19651 -19.2715,-1.92188 0,0 10e-5,-0.002 0,-0.002 -8.2506,-0.83292 -20.8455,-2.23173 -22.1289,-2.20703 z m 227.3047,6.96094 c -0.7757,0.63035 43.0243,69.01246 44.2324,69.05078 -2.2158,30.24863 -2.7038,37.06109 -4.4804,71.71289 5.7534,0.3376 11.8129,0.80988 17.6894,1.21679 27.8489,1.92837 56.5606,4.2764 83.8633,4.6543 l 22.2266,0.26172 c 0.6288,-5.8846 1.1407,-15.3857 1.5996,-24.99414 0.6589,-13.79814 1.1367,-28.85055 1.0859,-42.46875 -4.503,-7.34192 -9.6166,-15.17445 -14.7793,-22.88086 -3.4544,-5.16079 -6.6562,-9.80342 -9.9746,-14.59961 -2.9511,-4.27559 -4.3544,-6.38637 -6.9219,-10.05078 -6.711,-9.57843 -13.2395,-18.76929 -14.205,-20.42969 -22.8753,-1.61558 -43.4088,-4.26412 -64.0274,-6.66601 -0.077,-0.009 -0.157,-0.0164 -0.2344,-0.0254 -8.7388,-1.01706 -17.5059,-1.99207 -26.4785,-2.80469 -9.5508,-0.87388 -19.3284,-1.58294 -29.5957,-1.97656 z m -535.63474,1.14453 c -1.22061,0.28891 -1.83812,0.46162 -3.09766,0.75781 h 2.74414 c 0.10522,-0.25966 0.24724,-0.49872 0.35352,-0.75781 z m 356.79104,143.70312 c -16.2465,-0.011 -20.267,0.31422 -21.9942,0.63867 -0.1442,0.8802 -1.0829,1.33773 -2.6113,1.57618 -1.5284,0.23844 -3.6465,0.25781 -6.1504,0.25781 h -12.3476 c -0.6816,4.43496 -1.5469,8.67426 -2.5176,12.8418 -0.1788,0.77524 -0.3744,1.54018 -0.5625,2.30859 -0.6898,2.7901 -1.4897,5.52546 -2.3008,8.25586 -1.0368,3.5252 -2.2053,7.0395 -3.4336,10.54492 -2.2327,6.33121 -4.656,12.689 -7.4375,19.35547 -3e-4,8e-4 0,10e-4 0,0.002 -3.4936,8.37278 -7.2589,17.09142 -11.5606,27.01758 7.7429,0.67922 16.1473,1.47023 24.0059,2.16016 36.2104,3.17904 73.2836,6.60272 110.6132,9.95508 11.4243,1.02594 22.4567,2.01012 33.8516,3.04687 25.0233,2.2767 49.9408,4.38222 74.3379,6.69141 33.3903,3.17626 52.4448,4.0437 63.457,2.93945 2.7572,-0.27647 5.3639,-0.58555 7.1524,-1.11914 43.7393,-22.04793 62.4007,-59.52224 75.6816,-95.59375 -17.3286,-1.215 -35.239,-2.2779 -53.2265,-3.25391 -10.0693,-0.54636 -20.0408,-0.98934 -30.129,-1.46484 -49.7422,-2.34457 -98.9769,-3.94104 -139.4746,-4.77149 -50.6307,-1.02518 -79.1049,-1.37772 -95.3515,-1.38867 z m -151.56838,2.04102 c -34.90808,-0.006 -107.81203,1.20443 -173.70508,2.99609 19.226,40.26903 53.94031,71.4445 96.70508,86.06641 L 915,702.51758 v 29.44726 c 23.05878,1.19141 42.05959,1.19141 63.89258,1.19141 4.90682,-0.4824 9.46381,-1.10659 13.80273,-1.83008 0.13839,-0.0236 0.26061,-0.0562 0.39844,-0.0801 4.22188,-0.71461 8.16725,-1.56349 11.89845,-2.52343 0,-6.9e-4 0.01,-10e-4 0.01,-0.002 31.6948,-8.15659 46.5903,-25.859 59.7031,-56.7207 6.9795,-16.4265 13.53,-36.22317 21.7813,-61.02344 -34.3028,-0.53318 -69.4492,-0.98546 -104.62893,-0.99023 z M 746.3125,615 c -18.38661,0.73674 -36.40143,1.49073 -47.42969,2.32227 0.0219,0.0219 0.0383,0.0494 0.0547,0.0762 -6.54098,0.38774 -10.24797,0.44576 -15.99609,0.75976 11.40683,40.13975 31.33476,76.75668 57.67773,107.8125 12.23475,2.25255 24.1283,4.07045 34.99024,5.00782 35.4735,3.18592 72.42095,2.3067 109.39062,1.48242 V 723.6348 C 835.55285,703.63307 796.2987,664.41069 776.27734,615 Z m -94.07227,4.61523 c -18.40185,0.76718 -37.01799,1.32977 -58.68554,1.84961 -0.002,-0.0132 -0.006,-0.0278 -0.008,-0.041 -11.50286,0.26264 -18.71412,0.52811 -35.46876,0.8125 0.78953,1.19323 1.70919,2.22962 2.51954,3.39648 2.00891,2.88305 4.09686,5.69897 6.26562,8.44727 9.65735,12.34384 20.60761,23.26483 33.23047,32.93945 27.5273,21.63801 60.58312,37.1663 94.46484,47.625 -19.00586,-28.78995 -33.41249,-60.80639 -42.31836,-95.0293 z"
         inkscape:label="танк"
         inkscape:export-filename=".\path5199.svg"
         inkscape:export-xdpi="96"
         inkscape:export-ydpi="96" /><path
         id="path5193"
         style="color:#000000;display:inline;fill:#1e0334;fill-opacity:1;stroke-width:30;stroke-linecap:square;-inkscape-stroke:none;paint-order:markers stroke fill"
         d="M 900,-6.6015625 C 776.2233,6.9890813 659.97349,62.218003 571.0957,151.0957 482.21793,239.9735 426.98887,356.22323 413.39844,480 H 534.28125 C 547.22276,388.13348 589.57573,302.31839 655.94727,235.94727 722.31839,169.57573 808.13356,127.22273 900,114.28125 Z m 120,0 V 114.28125 c 78.9895,11.12752 153.3252,44.23921 214.8262,95.46289 6.0665,-3.25646 12.9943,-6.15768 20.8808,-8.53125 3.3514,-1.00866 12.8606,-4.30124 18.3242,-6.125 17.5501,-6.31978 35.8785,-9.7198 54.2364,-12.6543 14.5674,-2.31151 29.1019,-4.75114 43.7304,-6.58203 -7.45,-8.43976 -15.0852,-16.7474 -23.0937,-24.75586 C 1260.0269,62.218003 1143.7775,6.9890813 1020,-6.6015625 Z M 900,242.70703 C 781.10894,266.81768 687.04575,361.123 662.90625,480 H 786.66602 C 804.89577,426.78189 846.73591,384.96948 900,366.75781 Z M 413.39844,600 c 13.59043,123.77677 68.81949,240.0265 157.69726,328.9043 88.87779,88.8774 205.1276,144.1061 328.9043,157.6973 V 965.71875 C 808.13356,952.77727 722.31839,910.42427 655.94727,844.05273 589.57573,777.68161 547.22276,691.86652 534.28125,600 Z m 249.50781,0 C 687.04575,718.877 781.10894,813.18232 900,837.29297 V 713.24219 C 846.73591,695.03052 804.89577,653.21811 786.66602,600 Z m 837.81445,39.41797 c -10.0073,11.87582 -19.9033,23.84395 -30.0078,35.63867 -15.0244,17.54509 -30.0458,35.08843 -45.4453,52.30664 -10.2459,11.90836 -21.5864,22.75505 -33.4942,32.9707 -28.7516,24.66873 -55.7551,24.83241 -70.7734,12.64844 -16.3816,25.40093 -35.2365,49.36071 -56.9473,71.07031 C 1197.6829,910.42427 1111.8661,952.77727 1020,965.71875 v 120.88285 c 123.7775,-13.5912 240.0269,-68.8199 328.9043,-157.6973 79.3694,-79.37012 131.8059,-180.59336 151.8164,-289.48633 z M 1020,809.38672 v 27.90625 c 17.7109,-3.59175 34.7818,-8.91483 51.2383,-15.47461 -17.3856,-0.33384 -21.4688,0.0766 -43.8301,-8.08398 -2.6951,-0.98357 -5.0822,-2.61731 -7.4082,-4.34766 z M 900,-6.6015625 C 776.2191,6.9895573 659.97664,62.214783 571.0957,151.0957 482.21478,239.97665 426.98957,356.21903 413.39844,480 h 120.88281 c 1.61773,-11.48372 3.69448,-22.87244 6.2207,-34.14062 C 558.18556,366.98204 597.87033,294.02414 655.94727,235.94727 722.32084,169.57363 808.13041,127.22308 900,114.28125 Z m 120,0 V 114.28125 c 91.8697,12.94184 177.6793,55.29232 244.0527,121.66602 4.8633,4.8632 9.558,9.86128 14.1582,14.92968 11.9362,13.2487 22.781,27.29605 32.9356,41.77539 28.2184,-8.47921 57.9805,-17.56482 81.9961,-24.45898 6.5156,-1.87047 6.576,-2.64365 6.3183,-2.32422 -0.2577,0.31943 0.7316,-2.04183 3.3653,-7.96484 l 1.6328,-3.67578 3.2539,-2.36329 c 4.6488,-3.37878 9.6909,-6.08302 14.9297,-8.55859 -3.4275,-5.34303 -6.7293,-10.75996 -10.3379,-15.99414 0.01,-0.003 0.012,-0.005 0.018,-0.008 -5.4617,-7.907 -11.1958,-15.64147 -17.0743,-23.2793 -1.9688,-2.55818 -4.0073,-5.0639 -6.0234,-7.58984 -4.428,-5.54972 -8.9672,-11.01733 -13.6211,-16.40625 -2.047,-2.36862 -4.0734,-4.74771 -6.164,-7.08399 -6.6485,-7.4348 -13.4445,-14.75891 -20.5352,-21.84961 C 1260.0234,62.214783 1143.781,6.9895573 1020,-6.6015625 Z M 900,242.70703 c -111.46431,22.60439 -201.09995,106.89923 -231.75977,215.30274 -2.04398,7.2269 -3.82522,14.56015 -5.33398,21.99023 h 31.77539 c 2.81153,-0.82921 5.05089,-1.50654 7.87695,-2.33789 15.19394,-4.46966 30.25565,-8.87157 41.54883,-12.16016 4.26389,-1.24164 7.32127,-2.12778 10.31641,-2.99609 0.84281,-1.70562 1.73512,-3.37358 2.9707,-5.45117 l 0.0156,-0.0254 0.0137,-0.0234 c 17.64538,-29.42446 34.72695,-69.78423 70.02929,-96.82617 9.75757,-7.89766 16.67804,-12.01376 29.2168,-17.34375 9.2839,-3.94643 15.92887,-6.0484 22.16211,-7.03516 7.55955,-1.19714 14.35794,-1.82546 21.16797,-2.2207 z m 120,0 v 78.30859 17.30079 c 9.1577,0.91432 17.3129,1.65616 30.3926,3.23828 26.8651,1.95419 50.1316,4.80598 71.5644,9.48823 17.3522,-5.54551 38.8965,-12.13989 58.4004,-18.25781 -15.9768,-15.82011 -30.7216,-29.49516 -46.709,-40.79103 -12.8305,-9.0287 -26.7145,-17.34976 -40.1738,-24.04687 -17.3538,-7.45166 -34.0147,-14.77554 -50.6543,-19.56836 -7.5058,-2.14971 -15.0908,-4.10438 -22.8203,-5.67188 z m 436.5742,77.83203 c -2.3937,0.80651 -4.8356,1.55284 -7.4004,2.13086 l -0.8047,0.18164 -0.8203,0.0918 c -7.7209,0.86684 -14.712,0.45589 -21.2832,-1.38672 -2.7753,-0.77812 -8.1256,-0.91707 -11.7226,-0.23828 -23.0103,7.01668 -47.8049,14.83089 -72.1016,22.42773 8.9469,17.4565 16.7345,35.47662 23.2109,53.98243 1.9811,5.71914 3.8534,11.47839 5.6133,17.27539 0.01,0.002 0.013,0.004 0.02,0.006 3.8992,12.85918 6.9862,25.9697 9.6777,39.18164 17.1149,2.03979 34.1996,4.10971 52.6953,5.41601 l 7.9199,0.56055 3.9903,6.86328 c -0.6737,-1.1584 2.0069,2.96713 5.0586,7.31445 1.0359,1.47587 2.7128,3.87605 3.9628,5.6543 h 52.0118 c -3.0194,-27.49812 -8.2106,-54.58814 -15.2598,-81.12109 -0.1245,-0.46989 -0.2434,-0.94064 -0.3691,-1.41016 -3.0835,-11.48326 -6.5088,-22.85842 -10.3223,-34.10156 -0.1664,-0.49142 -0.3498,-0.97587 -0.5176,-1.4668 -1.3798,-4.03066 -3.0418,-7.95348 -4.5098,-11.95117 l -17.875,16.96289 -0.7734,-33.83594 c -0.1083,-4.74315 -0.2343,-8.30421 -0.4004,-12.53711 z m -556.5742,43 c -5.27175,0.3671 -10.5445,0.95317 -16.47656,1.89258 1.70287,-0.26952 -8.34497,2.13493 -15.11719,5.01367 -11.74883,4.99422 -13.31528,5.91955 -22.31836,13.23438 l -0.16992,0.13867 -0.17383,0.13281 c -18.46127,14.12347 -31.7593,35.16345 -44.43164,57.13867 1.74782,-0.51445 3.70428,-1.0655 5.44336,-1.57617 C 828.69632,405.92536 861.2193,380.01751 900,366.75781 Z m 318.1523,19.00586 c -14.1457,4.41838 -27.9841,8.80696 -42.1953,13.19727 3.6357,5.4268 6.486,9.64901 12.5274,18.76367 9.215,13.90318 19.2217,28.66109 20.5781,30.52734 1.7653,2.42252 3.3116,4.75949 4.5859,7.1543 12.0022,0.73794 24.2865,1.40718 36.4825,2.10156 -7.5738,-25.47099 -18.3585,-49.51256 -31.9786,-71.74414 z M 769,459.55273 768.54297,480 h 6.63086 L 769.75,459.74219 c -0.2462,-0.0471 -0.5109,-0.16026 -0.75,-0.18946 z m 18.94141,17.36915 c -4.57854,1.101 -7.3994,1.85981 -12.59766,3.07812 h 11.32227 c 0.36264,-1.05866 0.89226,-2.02977 1.27539,-3.07812 z M 413.39844,600 c 13.59113,123.78097 68.81634,240.02335 157.69726,328.9043 88.88094,88.8809 205.1234,144.1061 328.9043,157.6973 V 965.71875 C 808.13041,952.77692 722.32084,910.42637 655.94727,844.05273 597.44362,785.54914 557.66932,711.92884 540.18164,632.38477 l -0.32226,0.01 -0.38868,-3.91406 c -0.23268,-1.10685 -0.38534,-2.23274 -0.60937,-3.3418 l -11.53516,-17.43555 8.33203,-0.14062 c -0.40331,-2.53412 -1.01861,-5.0188 -1.37695,-7.5625 z m 1078.06636,0 c -0.2696,3.70328 -0.4441,8.70779 -0.7519,11.58789 l -1.4492,13.56641 -23.9219,-0.28125 c -13.6986,36.9773 -34.7284,78.77457 -82.668,102.93945 l -1.1875,0.59961 -1.2754,0.38086 c -8.9566,2.67217 -19.8224,2.99368 -35.1953,2.13086 -5.1867,10.40396 -10.6467,20.67617 -16.6484,30.66211 -8.5614,14.24552 -17.9588,28.02612 -28.166,41.26562 -0.9258,1.19871 -1.8871,2.3728 -2.8262,3.5625 -4.0813,5.17927 -8.3026,10.26134 -12.6348,15.26367 -1.3639,1.57275 -2.7131,3.15627 -4.1015,4.71094 -5.3644,6.01379 -10.8556,11.93371 -16.586,17.66406 C 1197.6794,910.42637 1111.8696,952.77692 1020,965.71875 v 120.88285 c 123.781,-13.5912 240.0234,-68.8164 328.9043,-157.6973 6.3913,-6.39127 12.5574,-12.96207 18.5977,-19.62891 1.8348,-2.02545 3.6023,-4.09842 5.4042,-6.14844 4.2172,-4.79667 8.3563,-9.64691 12.3926,-14.57422 1.8962,-2.31527 3.775,-4.63913 5.6309,-6.98242 4.0954,-5.16955 8.077,-10.41338 11.9746,-15.71484 1.4209,-1.93329 2.881,-3.83878 4.2754,-5.78906 5.2815,-7.3847 10.4092,-14.86568 15.3066,-22.48438 4.8466,-7.53949 9.4498,-15.21717 13.9141,-22.9707 1.1443,-1.98813 2.2346,-4.00233 3.3535,-6.00391 3.3392,-5.97112 6.5701,-11.99569 9.6816,-18.08203 1.132,-2.21503 2.2578,-4.43049 3.3594,-6.66016 3.2334,-6.54206 6.3275,-13.14588 9.2969,-19.80859 0.6845,-1.53629 1.4097,-3.05328 2.0801,-4.5957 3.6912,-8.4908 7.1963,-17.0614 10.4551,-25.72852 16.1166,-42.86515 26.9283,-87.77404 31.9746,-133.73242 z m -692.04878,28.19141 c -28.0203,0.79341 -54.46018,1.66333 -74.67188,2.63867 l 0.0371,0.0625 -24.95508,1.48047 c -10.55993,0.62597 -18.45219,0.88241 -27.55273,1.32422 7.89847,24.13393 18.56698,46.99707 31.93359,68.08398 25.78759,7.70373 51.10615,12.39097 72.69336,14.25391 l 0.0254,0.002 0.0254,0.002 c 39.00925,3.50349 80.79704,1.90433 123.04883,1.12305 v -3.91992 C 856.61157,698.40705 821.05644,667.75406 799.41602,628.19141 Z m 264.41598,77.72851 c -0.7898,1.14363 -1.5136,2.35176 -2.3418,3.46094 -10.2649,13.74801 -23.8844,23.60611 -41.4902,30.12305 v 5 92.78906 c 6.0725,-1.23148 12.0557,-2.70491 17.9922,-4.29688 1.6788,-0.45085 3.3367,-0.94658 5.0039,-1.42578 4.5382,-1.30213 9.0312,-2.70563 13.4805,-4.21289 1.458,-0.49499 2.9211,-0.97352 4.3691,-1.49023 6.8281,-2.43096 13.5123,-5.14744 20.1074,-8.04688 6.9928,-3.08181 13.8201,-6.45954 20.5274,-10.04492 2.6398,-1.40791 5.2526,-2.83911 7.8457,-4.32227 6.4598,-3.70228 12.7965,-7.58986 18.9511,-11.74218 2.5778,-1.7367 5.0706,-3.56989 7.5918,-5.38282 5.0397,-3.62734 9.97,-7.38847 14.7754,-11.30859 2.644,-2.15653 5.2587,-4.32778 7.8282,-6.57031 1.0001,-0.87242 2.0621,-1.67351 3.0507,-2.5586 -0.089,-0.0108 -0.1767,-0.0301 -0.2656,-0.041 15.9226,-14.24882 30.3978,-30.06686 43.1016,-47.2793 -47.3936,-4.26893 -95.1032,-8.66564 -140.5274,-12.65039 z m -331.25192,33.83985 c 0.18972,0.21566 0.3567,0.45074 0.54687,0.66601 1.73135,1.9599 3.55552,3.82365 5.33594,5.73828 3.99532,4.29654 8.08409,8.49241 12.31836,12.55274 2.09947,2.01329 4.22082,3.99023 6.37695,5.94336 4.35962,3.94917 8.84693,7.74296 13.42969,11.4375 2.02511,1.63265 4.00127,3.31321 6.06836,4.89453 6.6618,5.09626 13.47852,9.99798 20.55469,14.53906 7.06545,4.53421 14.37847,8.69901 21.82422,12.64648 2.31144,1.2255 4.68717,2.32729 7.0332,3.49415 5.30722,2.6397 10.6783,5.15109 16.1543,7.48242 2.72146,1.15868 5.45574,2.27312 8.21679,3.35351 5.54219,2.16869 11.17006,4.14164 16.86328,5.98633 2.54818,0.82568 5.06187,1.71354 7.63868,2.47266 8.22898,2.4243 16.55929,4.60255 25.05859,6.32617 V 747.2793 c -41.6551,0.84101 -84.18867,2.36978 -125.73242,-1.36133 -12.88145,-1.11348 -27.0891,-3.34344 -41.6875,-6.1582 z"
         inkscape:label="прицел" /></g></g><g
     id="g8063"
     style="display:inline"><path
       style="color:#000000;fill:#d96cff;-inkscape-stroke:none"
       d="M 125,419 C 56.201368,419 0,475.20137 0,544 c 0,68.79863 56.201368,125 125,125 68.79863,0 125,-56.20137 125,-125 0,-68.79863 -56.20137,-125 -125,-125 z m 0,40 c 47.18105,0 85,37.81895 85,85 0,47.18105 -37.81895,85 -85,85 -47.181049,0 -85,-37.81895 -85,-85 0,-47.18105 37.818951,-85 85,-85 z"
       id="circle1140"
       inkscape:export-filename="..\джойстик.png"
       inkscape:export-xdpi="300"
       inkscape:export-ydpi="300" /><path
       id="rect1142"
       style="fill:#63219c"
       d="m 160,575 v -47.8571 c 0,-2.77 2.23,-5 5,-5 h 80 c 2.77,0 5,2.23 5,5 V 575 c 0,2.77 -2.23,5 -5,5 h -80 c -2.77,0 -5,-2.23 -5,-5 z" /><path
       d="m 232,549.268 c 1.333,0.77 1.333,2.694 0,3.464 l -39,22.517 c -1.333,0.77 -3,-0.193 -3,-1.732 v -45.034 c 0,-1.539 1.667,-2.502 3,-1.732 z"
       fill="#d96cff"
       id="path1144" /><path
       id="rect1146"
       style="fill:#63219c"
       d="m 0,568 v -47.8571 c 0,-2.77 2.23,-5 5,-5 h 80 c 2.77,0 5,2.23 5,5 V 568 c 0,2.77 -2.23,5 -5,5 H 5 c -2.77,0 -5,-2.23 -5,-5 z" /><path
       d="m 18,545.732 c -1.3333,-0.77 -1.3333,-2.694 0,-3.464 l 39,-22.517 c 1.3333,-0.77 3,0.193 3,1.732 v 45.034 c 0,1.539 -1.6667,2.502 -3,1.732 z"
       fill="#d96cff"
       id="path1148" /><path
       id="path1924"
       style="display:inline;fill:#63219c"
       d="m 101,579 h 47.8571 c 2.77,0 5,2.23 5,5 v 80 c 0,2.77 -2.23,5 -5,5 H 101 c -2.77,0 -5,-2.23 -5,-5 v -80 c 0,-2.77 2.23,-5 5,-5 z" /><path
       d="m 126.732,651 c -0.77,1.333 -2.694,1.333 -3.464,0 l -22.517,-39 c -0.7695,-1.333 0.193,-3 1.732,-3 h 45.034 c 1.539,0 2.502,1.667 1.732,3 z"
       fill="#d96cff"
       id="path1152"
       style="display:inline" /><g
       id="rect1154"><path
         style="color:#000000;fill:#63219c;stroke-width:5;-inkscape-stroke:none"
         d="m 101,416.5 h 47.8571 c 4.155,0 7.5,3.345 7.5,7.5 v 80 c 0,4.155 -3.345,7.5 -7.5,7.5 H 101 c -4.155,0 -7.5,-3.345 -7.5,-7.5 v -80 c 0,-4.155 3.345,-7.5 7.5,-7.5 z"
         id="path1916" /><path
         style="color:#000000;fill:#ffffff;-inkscape-stroke:none"
         d="m 101,414 c -5.496751,0 -10,4.50325 -10,10 v 80 c 0,5.49675 4.503249,10 10,10 h 47.85742 c 5.49675,0 10,-4.50325 10,-10 v -80 c 0,-5.49675 -4.50325,-10 -10,-10 z m 0,5 h 47.85742 c 2.81324,0 5,2.18676 5,5 v 80 c 0,2.81324 -2.18676,5 -5,5 H 101 c -2.81324,0 -5,-2.18676 -5,-5 v -80 c 0,-2.81324 2.18676,-5 5,-5 z"
         id="path1918" /></g><path
       d="m 123.268,437 c 0.77,-1.333 2.694,-1.333 3.464,0 l 22.517,39 c 0.77,1.333 -0.193,3 -1.732,3 h -45.034 c -1.539,0 -2.5015,-1.667 -1.732,-3 z"
       fill="#ffffff"
       id="path1156"
       style="display:inline" /></g><g
     id="circle1158"
     style="display:inline"><path
       style="color:#000000;fill:#d96cff;stroke-width:10;-inkscape-stroke:none"
       d="M 765,475 A 130,130 0 0 1 635,605 130,130 0 0 1 505,475 130,130 0 0 1 635,345 130,130 0 0 1 765,475 Z"
       id="path1909" /><path
       style="color:#000000;fill:#ffffff;-inkscape-stroke:none"
       d="m 635,340 c -74.49914,0 -135,60.50086 -135,135 0,74.49914 60.50086,135 135,135 74.49914,0 135,-60.50086 135,-135 0,-74.49914 -60.50086,-135 -135,-135 z m 0,10 c 69.09475,0 125,55.90525 125,125 0,69.09475 -55.90525,125 -125,125 -69.09475,0 -125,-55.90525 -125,-125 0,-69.09475 55.90525,-125 125,-125 z"
       id="path1911" /><g
       clip-path="url(#clip1_55_59)"
       id="g1178"><path
         d="m 702.708,491.486 2.071,-79.096 6.024,9.039 z"
         fill="#ffffff"
         id="path1160" /><path
         d="M 595.092,454.58 555.977,435.807 550.434,422.94 Z"
         fill="#ffffff"
         id="path1162" /><path
         d="m 556.257,537.935 10.315,-8.694 43.666,2.533 z"
         fill="#ffffff"
         id="path1164" /><path
         d="M 554.994,386 609.427,463.295 549,460.02 621.069,509 l -46.573,8.137 52.844,11.192 -28.379,13.649 c 82.08,13.56 127.805,-11.042 86.894,-104.844 l -7.551,37.569 -42.489,-77.503 -1.026,55.215 z m 57.191,62.295 50.229,44.173 3.734,-23.426 7.807,26.222 12.709,-11.818 c 0.239,49.162 -16.187,45.363 -46.736,47.934 -0.117,-2.774 9.95,-10.49 11.701,-13.646 l -29.813,0.211 25.646,-8.733 -31.741,-20.002 28.807,5.957 z"
         fill="#ffffff"
         id="path1166" /><path
         d="m 627.936,434.288 -8.349,-27.916 -2.289,10.708 z"
         fill="#ffffff"
         id="path1168" /><path
         d="m 698.791,529.013 c -5.433,7.104 -16.181,13.455 -24.831,14.62 3.731,2.821 7.462,5.641 11.192,8.462 7.775,0.377 21.358,-8.763 23.984,-14.809 -3.448,-2.758 -6.896,-5.516 -10.345,-8.273 z"
         fill="#ffffff"
         id="path1170" /><path
         d="m 704.493,511.743 c -0.695,4.758 -1.853,9.487 -3.881,13.863 l 10.59,8.37 c 2.058,-3.973 3.956,-8.476 3.154,-13.039 -3.288,-3.065 -6.575,-6.129 -9.863,-9.194 z"
         fill="#ffffff"
         id="path1172" /><path
         d="m 733.668,551.73 c 1.416,-1.867 2.778,-3.775 4.084,-5.721 0.423,-0.694 0.839,-1.392 1.248,-2.094 -6.562,-6.118 -13.123,-12.235 -19.685,-18.353 -0.589,4.076 -2.201,7.932 -4.196,11.51 6.183,4.886 12.366,9.772 18.549,14.658 z"
         fill="#ffffff"
         id="path1174" /><path
         d="m 713.214,573.313 c 1.705,-1.367 3.373,-2.78 5.001,-4.236 2.478,-2.281 4.861,-4.664 7.142,-7.142 1.946,-2.139 3.816,-4.347 5.606,-6.619 -6.029,-4.856 -12.05,-9.708 -18.166,-14.599 -4.856,8.299 -15.747,14.858 -21.246,16.216 7.221,5.46 14.442,10.92 21.663,16.38 z"
         fill="#ffffff"
         id="path1176" /></g></g><defs
     id="defs1186"><clipPath
       id="clip0_55_59"><rect
         width="600"
         height="480"
         fill="#ffffff"
         transform="translate(15)"
         id="rect1180"
         x="0"
         y="0" /></clipPath><clipPath
       id="clip1_55_59"><rect
         width="190"
         height="187.313"
         fill="#ffffff"
         transform="translate(549,386)"
         id="rect1183"
         x="0"
         y="0" /></clipPath></defs></svg>
