<svg width="1668" height="1022" viewBox="0 0 1668 1022" fill="none" xmlns="http://www.w3.org/2000/svg">
<path d="M564.304 460.9L573.758 448.617L563.006 440.34L553.38 449.903L564.304 460.9ZM1098.55 872.141L1089.1 884.424L1102.38 894.649L1111.54 880.606L1098.55 872.141ZM1667.01 0.163748L1507.4 81.1367L1657.33 178.88L1667.01 0.163748ZM22.0531 1021.43L575.228 471.896L553.38 449.903L0.205245 999.438L22.0531 1021.43ZM554.849 473.182L1089.1 884.424L1108.01 859.859L573.758 448.617L554.849 473.182ZM1111.54 880.606L1603.81 125.489L1577.84 108.559L1085.57 863.676L1111.54 880.606Z" fill="#FF2342"/>
</svg>
