<svg width="1080" height="864" viewBox="0 0 1080 864" fill="none" xmlns="http://www.w3.org/2000/svg">
<g clip-path="url(#clip0_31_90)">
<path d="M999 0H81C59.5175 0 38.9148 8.5339 23.7244 23.7244C8.5339 38.9148 0 59.5175 0 81L0 621C0 642.483 8.5339 663.085 23.7244 678.276C38.9148 693.466 59.5175 702 81 702H486V756H189C181.839 756 174.972 758.845 169.908 763.908C164.845 768.972 162 775.839 162 783V837C162 844.161 164.845 851.028 169.908 856.092C174.972 861.155 181.839 864 189 864H891C898.161 864 905.028 861.155 910.092 856.092C915.155 851.028 918 844.161 918 837V783C918 775.839 915.155 768.972 910.092 763.908C905.028 758.845 898.161 756 891 756H594V702H999C1020.48 702 1041.09 693.466 1056.28 678.276C1071.47 663.085 1080 642.483 1080 621V81C1080 59.5175 1071.47 38.9148 1056.28 23.7244C1041.09 8.5339 1020.48 0 999 0V0ZM972 594H108V108H972V594Z" fill="black"/>
<path d="M752.179 207.414C746.175 213.207 741.842 217.871 735.614 224.353C730.754 220.113 727.108 215.977 721.921 210.356L718.978 229.242C716.314 230.531 710.995 230.413 705.937 231.499C706.69 232.434 709.142 235.533 713.215 239.608C712.818 240.49 712.38 241.381 711.92 242.275C707.237 243.634 703.681 245.183 700.475 247.423C700.326 247.527 700.167 247.612 700.02 247.719C698.383 251.399 698.654 253.04 692.769 254.729C671.953 260.705 645.926 268.663 621.058 276.401C616.993 277.666 613.3 278.829 609.394 280.056C601.457 282.549 592.503 285.294 585.693 287.482C583.443 288.227 578.064 289.135 574.564 289.903C573.397 290.159 572.439 290.399 571.875 290.613C569.736 291.423 574.96 289.166 575.769 288.92L579.841 287.456L578.469 286.663C579.379 287.189 576.621 285.835 573.432 285.448C572.244 285.357 571.232 285.362 570.284 285.411C569.931 285.427 569.582 285.463 569.252 285.497C568.704 285.558 568.173 285.646 567.671 285.753C566.689 285.96 565.725 286.244 564.782 286.618C564.769 286.623 564.756 286.626 564.743 286.631C563.672 287.057 562.571 287.55 561.297 288.165C561.882 287.318 562.824 286.664 563.862 286.109C563.862 286.109 563.862 286.109 563.862 286.109C566.272 284.82 569.145 284.253 570.475 283.934C570.662 283.891 570.964 283.815 571.077 283.782C571.144 283.759 571.18 283.73 571.206 283.711C571.314 283.64 571.217 283.584 570.57 283.54C569.494 283.466 565.385 283.015 561.438 282.538C559.212 282.269 558.158 282.202 556.319 281.991V281.992C552.224 281.537 548.228 281.129 545.02 280.879V280.784C542.577 280.582 539.512 280.487 536.899 280.348C536.493 280.328 536.117 280.29 535.702 280.27C535.696 280.275 535.689 280.279 535.683 280.283C533.412 280.172 531.655 280.012 528.824 279.916C520.876 279.645 515.58 279.398 511.122 279.39V290.461L507.301 291.768C493.19 296.593 481.444 306.227 473.871 318.733C485.499 315.332 496.513 312.104 510.342 308.13L540.525 310.551C557.126 311.882 570.949 313.171 571.244 313.417C571.54 313.662 572.019 314.433 572.308 315.132C572.737 316.168 573.167 316.449 574.638 316.656C575.387 316.76 579.342 317.158 581.462 317.407C585.72 317.907 588.679 318.198 595.17 318.915C606.315 320.147 618.636 321.576 618.706 321.506C618.789 321.423 618.159 320.397 617.308 319.225C616.456 318.053 612.906 312.789 609.418 307.527C605.93 302.265 602.712 297.444 602.267 296.814L601.457 295.667L598.3 296.687C596.563 297.248 592.891 298.428 590.14 299.31C588.125 299.956 585.422 300.636 583.15 301.241C582.322 301.462 581.051 301.806 580.601 301.946C580.903 306 578.616 308.404 575.604 309.766C573.068 310.913 570.025 311.331 567.51 311.262C563.266 310.44 558.629 308.429 557.122 304.931C555.651 301.539 555.335 298.147 555.992 295.667C556.057 295.363 556.138 295.139 556.201 294.858C556.536 293.371 556.883 292.126 558.014 291.002C557.554 292.479 557.425 294.036 557.37 295.499C557.352 295.959 557.309 296.449 557.308 296.873C557.308 300.945 558.77 304.243 561.73 306.848C562.341 307.339 563.047 307.713 563.789 308.027C563.926 308.085 564.053 308.149 564.193 308.202C564.471 308.305 564.773 308.347 565.062 308.428C565.803 308.639 566.554 308.8 567.344 308.873C567.569 308.893 567.787 308.891 568.014 308.9C568.919 308.94 569.81 308.901 570.706 308.777C570.814 308.761 570.915 308.747 571.022 308.729C572.06 308.562 573.044 308.299 573.97 307.927C573.97 307.926 573.973 307.926 573.975 307.925C576.744 306.81 578.834 304.868 578.864 302.237C578.369 301.89 577.964 301.332 577.964 300.996C579.255 300.612 580.563 300.2 581.856 299.813C581.856 299.812 581.86 299.812 581.861 299.811C593.4 296.353 604.982 292.797 616.56 289.195C620.348 288.017 624.114 286.841 627.885 285.66C640.26 281.786 651.946 278.172 663.908 274.42C667.617 273.257 671.273 272.122 674.92 270.985C682.566 268.6 690.71 266.008 698.008 263.784C700.278 263.315 703.008 263.34 705.21 263.958C705.997 264.178 706.704 264.302 707.417 264.362C708.04 264.429 708.848 264.416 709.595 264.375C710.083 264.349 710.459 264.374 711.071 264.306C714.44 263.546 717.363 262.041 720.172 260.198C720.267 260.135 720.37 260.092 720.464 260.029C720.468 260.295 720.488 260.64 720.492 260.907C720.492 260.907 720.492 260.907 720.492 260.908C720.556 264.767 720.787 268.657 720.9 273.608C722.12 272.45 723.34 271.292 724.559 270.135C727.808 267.052 731.057 263.969 734.307 260.886C738.628 266.592 741.958 271.862 746.567 278.608C745.467 271.546 744.531 264.629 743.38 258.303C753.527 259.303 761.155 259.925 772.2 261.073C763.347 254.543 756.701 249.541 747.354 242.53C750.965 240.816 754.2 239.408 757.537 237.958C760.874 236.509 764.312 235.016 768.329 233.131C763.395 232.406 759.15 232.495 754.407 232.105C752.826 231.975 751.19 231.792 749.455 231.508C750.438 223.103 751.27 217.051 752.179 207.414H752.179ZM746.493 220.718L740.99 235.813L751.901 236.172L739.145 242.602L751.415 252.291L739.401 249.572L738.859 257.888L733.945 251.449L725.307 263.237L724.628 252.242L716.485 252.845L709.877 253.334L714.311 248.848L721.362 241.714L715.218 234.461L724.73 234.507L725.63 224.424L734.187 233.158L746.493 220.718ZM728.677 233.169V238.901L722.671 238.628L726.857 242.632L715.446 250.882L715.028 251.184L715.544 251.057L727.584 248.091L727.038 256.826L732.771 246.635L737.775 252.55L734.59 243.724L739.81 246.985L735.592 240.539L735.956 240.084L739.413 233.169L731.952 238.81L728.677 233.169ZM499.824 280.172C499.33 280.242 498.9 280.261 498.384 280.342C497.531 280.477 494.387 281.326 491.363 282.612C486.766 284.566 485.168 285.516 481.605 288.41C469.818 297.428 463.555 311.752 456.618 323.319C456.592 323.363 456.589 323.381 456.563 323.424H457.736C458.196 323.285 458.597 323.178 459.053 323.041C466.642 304.616 481.331 289.988 499.824 282.508V280.172ZM575.4 283.99C575.352 283.992 575.323 283.996 575.317 284.003C575.147 284.172 578.979 285.227 581.82 286.827C582.505 287.213 583.684 286.558 584.561 286.284C585.438 286.01 586.27 285.673 586.408 285.534C586.546 285.396 585.074 285.04 583.138 284.744C581.323 284.466 576.126 283.969 575.4 283.991V283.99ZM510.471 310.951C493.148 314.176 487.489 316.019 473.384 319.621C471.304 323.184 469.494 326.93 468.132 330.905L466.824 334.723H429.035C419.53 337.532 409.525 340.499 408.833 340.837C408.841 340.858 408.85 340.884 408.859 340.905C401.713 342.845 395.497 344.588 388.511 347.041C387.69 347.329 386.961 347.521 386.113 347.833C381.473 351.911 379.153 356.503 375.886 362.363C374.355 367.449 375.554 375.006 376.118 380.681C376.136 380.681 376.147 380.68 376.165 380.68C376.165 380.68 376.165 380.681 376.165 380.681C389.228 380.327 399.518 379.819 411.572 379.247C411.266 377.96 410.903 376.696 410.638 375.394L409.263 368.621H466.824L468.132 372.439C468.702 374.101 469.411 375.691 470.111 377.285L502.721 376.348L550.625 374.973L582.646 375.194L582.972 360.06C583.297 344.935 583.297 344.924 582.33 343.186C581.798 342.229 578.728 335.869 575.507 329.053C572.286 322.237 569.491 316.498 569.296 316.301C568.87 315.869 525.414 311.874 510.471 310.951V310.951ZM575.137 320.086C575.077 320.087 575.042 320.09 575.035 320.098C574.602 320.531 583.864 339.535 585.392 341.325C587.525 347.73 585.636 370.085 585.924 373.853C586.437 373.864 586.909 373.871 587.422 373.882C607.358 374.32 626.453 374.669 645.578 375.036C654.533 375.208 664.75 375.379 672.806 375.577C673.293 367.311 673.427 359.478 674.07 348.791C668.947 339.976 663.706 331.058 657.853 322.847C655.034 323.543 651.523 324.743 647.814 325.651C646.84 325.599 645.884 325.537 644.907 325.484C633.369 324.862 621.794 324.211 610.972 323.424C610.961 323.423 610.952 323.422 610.941 323.422C605.964 323.059 601.228 322.656 596.71 322.218C596.71 322.217 596.71 322.218 596.706 322.218C594.719 322.025 592.6 321.853 590.729 321.641C587.013 321.219 586.177 321.191 583.47 320.918C583.47 320.918 583.47 320.917 583.47 320.917C580.363 320.603 575.619 320.076 575.136 320.086L575.137 320.086ZM660.749 322.707C660.457 322.945 676.954 348.7 677.409 348.715C676.574 360.108 676.39 362.673 675.721 375.725C677.888 375.852 680.17 376.03 682.384 376.183C692.873 376.909 703.687 377.794 713.97 377.936L722.341 378.035C722.578 375.818 722.771 372.24 722.944 368.621C723.192 363.424 723.372 357.754 723.353 352.625C721.657 349.86 719.731 346.91 717.786 344.007C716.485 342.064 715.279 340.315 714.03 338.509C712.918 336.898 712.39 336.103 711.423 334.723C708.895 331.116 706.436 327.654 706.072 327.029C697.457 326.42 689.723 325.423 681.957 324.518C681.928 324.514 681.898 324.512 681.869 324.508C678.577 324.125 675.275 323.758 671.896 323.452C668.299 323.123 664.616 322.856 660.749 322.707V322.707ZM459.008 323.139C458.548 323.247 458.315 323.312 457.841 323.424H458.875C458.914 323.326 458.968 323.236 459.008 323.139ZM593.389 377.263C587.27 377.259 585.756 377.381 585.106 377.503C585.051 377.835 584.698 378.007 584.122 378.097C583.546 378.187 582.749 378.194 581.806 378.194H577.155C576.898 379.865 576.572 381.461 576.207 383.031C576.139 383.323 576.066 383.611 575.995 383.9C575.735 384.951 575.434 385.982 575.128 387.01C574.738 388.338 574.298 389.661 573.835 390.982C572.994 393.366 572.081 395.761 571.034 398.272C571.034 398.272 571.034 398.272 571.034 398.272C569.718 401.426 568.3 404.71 566.68 408.448C569.596 408.704 572.761 409.002 575.721 409.262C589.359 410.459 603.323 411.749 617.382 413.011C621.685 413.398 625.841 413.768 630.132 414.159C639.557 415.016 648.942 415.809 658.131 416.679C670.707 417.875 677.884 418.202 682.031 417.786C683.07 417.682 684.052 417.566 684.725 417.365C701.199 409.061 708.228 394.946 713.23 381.36C706.703 380.903 699.958 380.502 693.183 380.135C689.39 379.929 685.635 379.762 681.835 379.583C663.1 378.7 644.556 378.099 629.303 377.786C610.234 377.4 599.509 377.267 593.39 377.263L593.389 377.263ZM536.303 378.032C523.155 378.029 495.696 378.485 470.879 379.16C478.12 394.327 491.195 406.069 507.301 411.576L511.123 412.883V423.974C519.808 424.422 526.964 424.422 535.188 424.422C537.036 424.241 538.752 424.005 540.386 423.733C540.438 423.724 540.484 423.712 540.536 423.703C542.126 423.434 543.612 423.114 545.018 422.752C545.018 422.752 545.021 422.752 545.021 422.752C556.959 419.68 562.569 413.012 567.508 401.388C570.137 395.202 572.604 387.745 575.712 378.405C562.792 378.204 549.554 378.033 536.304 378.032L536.303 378.032ZM447.589 379.92C440.664 380.197 433.878 380.481 429.725 380.795C429.733 380.803 429.739 380.813 429.745 380.823C427.282 380.969 425.886 380.991 423.721 381.109C428.017 396.228 435.522 410.019 445.444 421.716C450.052 422.564 454.532 423.249 458.623 423.602C471.984 424.802 485.9 424.471 499.824 424.16V420.836C481.2 413.303 466.415 398.53 458.875 379.92H447.589ZM412.157 381.658C405.226 381.947 398.215 382.159 390.054 382.355C390.053 382.35 390.052 382.344 390.051 382.339C385.719 382.438 383.002 382.538 376.692 382.645C376.989 383.095 377.336 383.485 377.641 383.925C378.398 385.011 379.184 386.071 380.001 387.106C383.638 391.755 387.763 395.869 392.517 399.513C402.885 407.662 415.335 413.511 428.096 417.45C420.938 406.607 415.512 394.548 412.157 381.658H412.157Z" fill="white" fill-opacity="0.85"/>
<path d="M505.473 145.8C458.854 150.919 415.07 171.72 381.595 205.195C348.12 238.67 327.319 282.454 322.2 329.074H367.729C372.604 294.473 388.555 262.152 413.553 237.154C438.551 212.155 470.873 196.204 505.473 191.329V145.8ZM550.67 145.8V191.329C580.421 195.52 608.419 207.992 631.582 227.284C633.867 226.058 636.476 224.965 639.447 224.071C640.709 223.691 644.291 222.451 646.348 221.764C652.959 219.384 659.862 218.103 666.776 216.998C672.263 216.128 677.737 215.209 683.247 214.519C680.441 211.34 677.565 208.211 674.549 205.195C641.074 171.72 597.29 150.919 550.67 145.8ZM505.473 239.7C460.694 248.781 425.266 284.3 416.175 329.074H462.787C469.653 309.029 485.412 293.281 505.473 286.422V239.7ZM322.2 374.27C327.319 420.89 348.12 464.674 381.595 498.149C415.07 531.623 458.854 552.425 505.473 557.544V512.014C470.873 507.14 438.551 491.188 413.553 466.19C388.555 441.192 372.604 408.871 367.729 374.27H322.2ZM416.175 374.27C425.266 419.044 460.694 454.563 505.473 463.644V416.922C485.412 410.063 469.653 394.314 462.787 374.27H416.175ZM731.729 389.117C727.96 393.59 724.232 398.097 720.427 402.54C714.768 409.148 709.11 415.755 703.31 422.24C699.451 426.726 695.18 430.811 690.695 434.658C679.866 443.95 669.695 444.011 664.039 439.422C657.869 448.989 650.767 458.014 642.59 466.19C617.593 491.188 585.271 507.14 550.67 512.014V557.544C597.29 552.425 641.074 531.623 674.549 498.149C704.442 468.255 724.192 430.13 731.729 389.117ZM550.67 453.134V463.644C557.341 462.291 563.77 460.287 569.969 457.816C563.42 457.69 561.883 457.845 553.46 454.771C552.445 454.401 551.546 453.785 550.67 453.134V453.134ZM505.473 145.8C458.853 150.919 415.071 171.719 381.595 205.195C348.119 238.671 327.319 282.453 322.2 329.074H367.729C368.339 324.748 369.121 320.459 370.072 316.215C376.733 286.506 391.679 259.028 413.553 237.154C438.552 212.155 470.872 196.204 505.473 191.329V145.8ZM550.67 145.8V191.329C585.272 196.204 617.591 212.155 642.59 237.154C644.422 238.985 646.19 240.868 647.923 242.777C652.418 247.767 656.503 253.057 660.328 258.511C670.956 255.317 682.165 251.895 691.211 249.299C693.665 248.594 693.687 248.303 693.59 248.423C693.493 248.544 693.866 247.654 694.858 245.423L695.473 244.039L696.698 243.149C698.449 241.876 700.348 240.858 702.321 239.925C701.03 237.913 699.787 235.873 698.428 233.901C698.432 233.9 698.432 233.899 698.435 233.898C696.377 230.92 694.218 228.007 692.004 225.13C691.262 224.167 690.494 223.223 689.735 222.272C688.067 220.182 686.358 218.122 684.605 216.093C683.834 215.2 683.071 214.304 682.283 213.424C679.779 210.624 677.219 207.866 674.549 205.195C641.073 171.719 597.291 150.919 550.67 145.8ZM505.473 239.7C463.492 248.213 429.731 279.962 418.184 320.791C417.414 323.513 416.743 326.275 416.175 329.074H428.142C429.201 328.761 430.045 328.506 431.109 328.193C436.832 326.51 442.505 324.852 446.758 323.613C448.364 323.145 449.516 322.812 450.644 322.485C450.961 321.842 451.297 321.214 451.763 320.431L451.768 320.422L451.774 320.413C458.42 309.331 464.853 294.13 478.149 283.944C481.824 280.97 484.431 279.42 489.154 277.412C492.65 275.926 495.153 275.134 497.501 274.762C500.348 274.311 502.909 274.075 505.473 273.926V239.7ZM550.67 239.7V269.194V275.71C554.119 276.054 557.191 276.334 562.117 276.93C572.236 277.666 580.999 278.74 589.071 280.503C595.607 278.414 603.721 275.931 611.067 273.627C605.05 267.668 599.496 262.517 593.475 258.263C588.642 254.862 583.413 251.728 578.344 249.206C571.808 246.399 565.532 243.641 559.265 241.836C556.438 241.026 553.581 240.29 550.67 239.7V239.7ZM715.101 269.014C714.2 269.318 713.28 269.599 712.314 269.817L712.011 269.885L711.702 269.92C708.794 270.246 706.161 270.091 703.686 269.397C702.641 269.104 700.626 269.052 699.271 269.308C690.604 271.95 681.266 274.894 672.114 277.755C675.484 284.33 678.417 291.117 680.857 298.087C681.603 300.241 682.308 302.41 682.971 304.593C682.975 304.594 682.976 304.595 682.978 304.596C684.447 309.439 685.61 314.377 686.623 319.353C693.069 320.121 699.504 320.901 706.47 321.393L709.453 321.604L710.956 324.189C710.703 323.753 711.712 325.307 712.862 326.944C713.252 327.5 713.883 328.404 714.354 329.074H733.944C732.807 318.717 730.851 308.514 728.196 298.52C728.15 298.343 728.105 298.166 728.057 297.989C726.896 293.664 725.606 289.38 724.17 285.145C724.107 284.96 724.038 284.777 723.975 284.593C723.455 283.074 722.829 281.597 722.276 280.091L715.544 286.48L715.252 273.736C715.212 271.95 715.164 270.609 715.102 269.014L715.101 269.014ZM505.473 285.21C503.488 285.348 501.502 285.569 499.268 285.923C499.909 285.821 496.125 286.727 493.574 287.811C489.149 289.692 488.559 290.04 485.168 292.795L485.104 292.848L485.039 292.898C478.085 298.217 473.077 306.142 468.304 314.418C468.962 314.225 469.699 314.017 470.354 313.825C478.618 301.174 490.867 291.416 505.473 286.422V285.21ZM625.302 292.368C619.974 294.032 614.762 295.685 609.41 297.339C610.779 299.383 611.853 300.973 614.128 304.406C617.599 309.642 621.368 315.201 621.879 315.904C622.544 316.816 623.126 317.696 623.606 318.598C628.126 318.876 632.753 319.128 637.347 319.39C634.494 309.796 630.432 300.741 625.302 292.368V292.368ZM456.134 321.372L455.961 329.074H458.459L456.416 321.444C456.323 321.426 456.224 321.383 456.134 321.372ZM463.268 327.914C461.543 328.329 460.481 328.615 458.523 329.074H462.787C462.924 328.675 463.123 328.309 463.268 327.914ZM322.2 374.27C327.319 420.891 348.119 464.673 381.595 498.149C415.071 531.625 458.853 552.425 505.473 557.544V512.014C470.872 507.14 438.552 491.189 413.553 466.19C391.519 444.155 376.538 416.427 369.952 386.468L369.83 386.471L369.684 384.997C369.596 384.58 369.539 384.156 369.454 383.739L365.11 377.172L368.248 377.119C368.096 376.164 367.864 375.228 367.729 374.27L322.2 374.27ZM728.243 374.27C728.141 375.665 728.075 377.55 727.959 378.635L727.414 383.744L718.404 383.638C713.244 397.566 705.324 413.308 687.268 422.41L686.82 422.635L686.34 422.779C682.967 423.785 678.874 423.906 673.084 423.581C671.131 427.5 669.074 431.369 666.814 435.13C663.589 440.495 660.05 445.686 656.205 450.672C655.856 451.124 655.494 451.566 655.141 452.014C653.603 453.965 652.014 455.879 650.382 457.763C649.868 458.355 649.36 458.952 648.837 459.537C646.817 461.802 644.748 464.032 642.59 466.19C617.591 491.189 585.272 507.14 550.67 512.014V557.544C597.291 552.425 641.073 531.625 674.549 498.149C676.956 495.741 679.278 493.267 681.553 490.756C682.244 489.993 682.91 489.212 683.589 488.44C685.177 486.633 686.736 484.807 688.256 482.951C688.97 482.079 689.678 481.203 690.377 480.321C691.92 478.374 693.419 476.399 694.887 474.402C695.422 473.674 695.972 472.956 696.497 472.222C698.487 469.44 700.418 466.623 702.263 463.753C704.088 460.913 705.822 458.022 707.503 455.101C707.934 454.353 708.345 453.594 708.766 452.84C710.024 450.591 711.241 448.322 712.413 446.03C712.839 445.195 713.263 444.361 713.678 443.521C714.896 441.057 716.061 438.57 717.18 436.061C717.437 435.482 717.711 434.911 717.963 434.33C719.353 431.132 720.673 427.904 721.901 424.639C727.971 408.494 732.043 391.58 733.944 374.27H728.243ZM467.59 384.888C457.036 385.187 447.078 385.515 439.465 385.882L439.479 385.906L430.08 386.463C426.103 386.699 423.13 386.796 419.703 386.962C422.677 396.052 426.696 404.663 431.73 412.605C441.443 415.507 450.979 417.272 459.109 417.974L459.119 417.974L459.128 417.975C473.821 419.295 489.56 418.692 505.473 418.398V416.922C489.132 411.334 475.74 399.789 467.59 384.888ZM567.179 414.164C566.882 414.595 566.609 415.05 566.297 415.467C562.431 420.645 557.301 424.358 550.67 426.813V428.696V463.644C552.957 463.18 555.211 462.625 557.447 462.026C558.079 461.856 558.704 461.669 559.331 461.489C561.041 460.998 562.733 460.47 564.409 459.902C564.958 459.716 565.509 459.535 566.054 459.341C568.626 458.425 571.144 457.402 573.628 456.31C576.261 455.149 578.833 453.877 581.359 452.527C582.353 451.996 583.337 451.457 584.314 450.899C586.747 449.504 589.134 448.04 591.452 446.476C592.423 445.822 593.362 445.132 594.311 444.449C596.209 443.083 598.066 441.666 599.876 440.19C600.872 439.377 601.857 438.56 602.825 437.715C603.201 437.386 603.601 437.085 603.974 436.751C603.94 436.747 603.907 436.74 603.874 436.736C609.871 431.369 615.323 425.411 620.107 418.929C602.257 417.321 584.288 415.665 567.179 414.164V414.164ZM442.416 426.909C442.488 426.991 442.551 427.079 442.622 427.16C443.275 427.898 443.962 428.6 444.632 429.321C446.137 430.94 447.677 432.52 449.272 434.049C450.062 434.808 450.861 435.552 451.674 436.288C453.316 437.775 455.006 439.204 456.732 440.596C457.494 441.211 458.239 441.844 459.017 442.439C461.526 444.359 464.094 446.205 466.759 447.915C469.42 449.623 472.174 451.191 474.979 452.678C475.849 453.14 476.744 453.555 477.628 453.994C479.627 454.989 481.65 455.934 483.712 456.812C484.737 457.249 485.767 457.669 486.807 458.076C488.894 458.892 491.014 459.635 493.158 460.33C494.118 460.641 495.065 460.976 496.035 461.262C499.135 462.175 502.272 462.995 505.473 463.644V429.742C489.784 430.058 473.765 430.634 458.118 429.229C453.266 428.809 447.915 427.97 442.416 426.909V426.909Z" fill="black"/>
</g>
<defs>
<clipPath id="clip0_31_90">
<rect width="1080" height="864" fill="white"/>
</clipPath>
</defs>
</svg>
