<svg width="1920" height="1536" viewBox="0 0 1920 1536" fill="none" xmlns="http://www.w3.org/2000/svg">
<g clip-path="url(#clip0_52_3)">
<path d="M1776 0H144C105.809 0 69.1819 15.1714 42.1766 42.1766C15.1714 69.1819 0 105.809 0 144L0 1104C0 1142.19 15.1714 1178.82 42.1766 1205.82C69.1819 1232.83 105.809 1248 144 1248H864V1344H336C323.27 1344 311.061 1349.06 302.059 1358.06C293.057 1367.06 288 1379.27 288 1392V1488C288 1500.73 293.057 1512.94 302.059 1521.94C311.061 1530.94 323.27 1536 336 1536H1584C1596.73 1536 1608.94 1530.94 1617.94 1521.94C1626.94 1512.94 1632 1500.73 1632 1488V1392C1632 1379.27 1626.94 1367.06 1617.94 1358.06C1608.94 1349.06 1596.73 1344 1584 1344H1056V1248H1776C1814.19 1248 1850.82 1232.83 1877.82 1205.82C1904.83 1178.82 1920 1142.19 1920 1104V144C1920 105.809 1904.83 69.1819 1877.82 42.1766C1850.82 15.1714 1814.19 0 1776 0V0ZM1728 1056H192V192H1728V1056Z" fill="black"/>
<path d="M820 632.8H900C922 632.8 940 614.8 940 592.8V512.8C940 490.8 922 472.8 900 472.8H820C798 472.8 780 490.8 780 512.8V592.8C780 614.8 798 632.8 820 632.8ZM820 512.8H900V592.8H820V512.8ZM820 832.8H900C922 832.8 940 814.8 940 792.8V712.8C940 690.8 922 672.8 900 672.8H820C798 672.8 780 690.8 780 712.8V792.8C780 814.8 798 832.8 820 832.8ZM820 712.8H900V792.8H820V712.8ZM980 512.8V592.8C980 614.8 998 632.8 1020 632.8H1100C1122 632.8 1140 614.8 1140 592.8V512.8C1140 490.8 1122 472.8 1100 472.8H1020C998 472.8 980 490.8 980 512.8ZM1100 592.8H1020V512.8H1100V592.8ZM1140 822.8V802.8C1140 797.2 1135.6 792.8 1130 792.8H1110C1104.4 792.8 1100 797.2 1100 802.8V822.8C1100 828.4 1104.4 832.8 1110 832.8H1130C1135.6 832.8 1140 828.4 1140 822.8ZM980 682.8V702.8C980 708.4 984.4 712.8 990 712.8H1010C1015.6 712.8 1020 708.4 1020 702.8V682.8C1020 677.2 1015.6 672.8 1010 672.8H990C984.4 672.8 980 677.2 980 682.8ZM1050 712.8H1030C1024.4 712.8 1020 717.2 1020 722.8V742.8C1020 748.4 1024.4 752.8 1030 752.8H1050C1055.6 752.8 1060 748.4 1060 742.8V722.8C1060 717.2 1055.6 712.8 1050 712.8ZM980 762.8V782.8C980 788.4 984.4 792.8 990 792.8H1010C1015.6 792.8 1020 788.4 1020 782.8V762.8C1020 757.2 1015.6 752.8 1010 752.8H990C984.4 752.8 980 757.2 980 762.8ZM1030 832.8H1050C1055.6 832.8 1060 828.4 1060 822.8V802.8C1060 797.2 1055.6 792.8 1050 792.8H1030C1024.4 792.8 1020 797.2 1020 802.8V822.8C1020 828.4 1024.4 832.8 1030 832.8ZM1070 792.8H1090C1095.6 792.8 1100 788.4 1100 782.8V762.8C1100 757.2 1095.6 752.8 1090 752.8H1070C1064.4 752.8 1060 757.2 1060 762.8V782.8C1060 788.4 1064.4 792.8 1070 792.8ZM1090 672.8H1070C1064.4 672.8 1060 677.2 1060 682.8V702.8C1060 708.4 1064.4 712.8 1070 712.8H1090C1095.6 712.8 1100 708.4 1100 702.8V682.8C1100 677.2 1095.6 672.8 1090 672.8ZM1110 752.8H1130C1135.6 752.8 1140 748.4 1140 742.8V722.8C1140 717.2 1135.6 712.8 1130 712.8H1110C1104.4 712.8 1100 717.2 1100 722.8V742.8C1100 748.4 1104.4 752.8 1110 752.8Z" fill="black"/>
</g>
<path d="M1168.87 574.888C1180.41 569.507 1193.67 569.059 1205.74 573.641C1217.81 578.222 1227.7 587.459 1233.23 599.318L1483.45 1135.92C1488.98 1147.78 1489.7 1161.29 1485.45 1173.48C1481.2 1185.67 1472.34 1195.54 1460.8 1200.92L1199.78 1322.63C1188.24 1328.01 1174.98 1328.46 1162.91 1323.88C1150.84 1319.3 1140.96 1310.06 1135.43 1298.2L885.206 761.604C879.676 749.744 878.956 736.233 883.203 724.043C887.451 711.853 896.32 701.982 907.857 696.602L1168.87 574.888ZM887.006 651.885C863.93 662.645 846.194 682.387 837.698 706.768C829.202 731.148 830.643 758.17 841.703 781.89L1091.92 1318.49C1102.98 1342.21 1122.76 1360.68 1146.9 1369.84C1171.03 1379.01 1197.56 1378.11 1220.63 1367.35L1481.65 1245.64C1504.72 1234.88 1522.46 1215.13 1530.96 1190.75C1539.45 1166.37 1538.01 1139.35 1526.95 1115.63L1276.73 579.033C1265.67 555.314 1245.9 536.84 1221.76 527.677C1197.62 518.514 1171.1 519.411 1148.02 530.171L887.006 651.885Z" fill="white"/>
<path d="M1309.44 1217.06C1320.98 1211.68 1329.84 1201.81 1334.09 1189.62C1338.34 1177.43 1337.62 1163.92 1332.09 1152.06C1326.56 1140.2 1316.67 1130.96 1304.6 1126.38C1292.53 1121.8 1279.27 1122.25 1267.73 1127.63C1256.2 1133.01 1247.33 1142.88 1243.08 1155.07C1238.83 1167.26 1239.55 1180.77 1245.08 1192.63C1250.61 1204.49 1260.5 1213.73 1272.57 1218.31C1284.64 1222.89 1297.9 1222.44 1309.44 1217.06Z" fill="white"/>
<path d="M1228.36 951.596L1264.61 934.691C1271.02 931.702 1275.98 926.29 1278.4 919.644C1280.82 912.998 1280.5 905.663 1277.51 899.253L1260.61 863.001C1259.11 859.796 1258.95 856.129 1260.16 852.806C1261.37 849.483 1263.85 846.776 1267.06 845.282C1270.26 843.787 1273.93 843.627 1277.25 844.837C1280.57 846.046 1283.28 848.526 1284.77 851.731L1301.68 887.983C1307.66 900.803 1308.3 915.472 1303.46 928.764C1298.62 942.056 1288.7 952.882 1275.88 958.859L1130.87 1026.48C1118.05 1032.46 1103.38 1033.1 1090.09 1028.26C1076.8 1023.42 1065.97 1013.5 1060 1000.68L1043.09 964.429C1041.6 961.224 1041.44 957.557 1042.65 954.234C1043.86 950.911 1046.34 948.205 1049.54 946.71C1052.75 945.216 1056.41 945.056 1059.74 946.265C1063.06 947.475 1065.77 949.955 1067.26 953.159L1084.16 989.412C1087.15 995.822 1092.57 1000.78 1099.21 1003.2C1105.86 1005.62 1113.19 1005.3 1119.6 1002.31L1155.86 985.405C1159.06 983.911 1162.73 983.751 1166.05 984.96C1169.37 986.17 1172.08 988.65 1173.57 991.855C1175.07 995.06 1175.23 998.727 1174.02 1002.05C1172.81 1005.37 1170.33 1008.08 1167.13 1009.57L1239.63 975.764C1236.42 977.259 1232.76 977.419 1229.43 976.209C1226.11 975 1223.41 972.52 1221.91 969.315C1220.42 966.11 1220.26 962.443 1221.47 959.12C1222.68 955.797 1225.15 953.09 1228.36 951.596V951.596ZM1033.45 880.655C1034.95 883.86 1035.11 887.527 1033.9 890.85C1032.69 894.173 1030.21 896.879 1027 898.374C1023.8 899.868 1020.13 900.028 1016.81 898.819C1013.48 897.61 1010.78 895.13 1009.28 891.925L992.378 855.672C986.4 842.853 985.759 828.183 990.597 814.892C995.435 801.6 1005.35 790.774 1018.17 784.796L1054.43 767.892C1057.63 766.397 1061.3 766.237 1064.62 767.446C1067.95 768.656 1070.65 771.136 1072.15 774.341C1073.64 777.546 1073.8 781.213 1072.59 784.536C1071.38 787.859 1068.9 790.565 1065.7 792.06L1029.44 808.965C1023.03 811.953 1018.07 817.366 1015.66 824.012C1013.24 830.658 1013.56 837.993 1016.55 844.403L1033.45 880.655ZM1226.8 790.496L1209.89 754.244C1206.9 747.834 1201.49 742.874 1194.84 740.455C1188.2 738.036 1180.86 738.357 1174.45 741.346L1138.2 758.25C1135 759.745 1131.33 759.905 1128.01 758.695C1124.68 757.486 1121.98 755.006 1120.48 751.801C1118.99 748.596 1118.83 744.929 1120.04 741.606C1121.25 738.283 1123.73 735.577 1126.93 734.082L1163.18 717.177C1176 711.199 1190.67 710.559 1203.96 715.397C1217.26 720.235 1228.08 730.155 1234.06 742.974L1250.96 779.226C1252.46 782.431 1252.62 786.099 1251.41 789.422C1250.2 792.745 1247.72 795.451 1244.52 796.945C1241.31 798.44 1237.64 798.6 1234.32 797.391C1231 796.181 1228.29 793.701 1226.8 790.496Z" fill="white"/>
<defs>
<clipPath id="clip0_52_3">
<rect width="1920" height="1536" fill="white"/>
</clipPath>
</defs>
</svg>
